<svg xmlns="http://www.w3.org/2000/svg" xmlns:ev="http://www.w3.org/2001/xml-events" xmlns:xlink="http://www.w3.org/1999/xlink" width="1157.291" height="57.5mm" baseProfile="full" version="1.1" viewBox="0 0 306.2 57.5"><rect width="306.2" height="57.5" x="0" y="0" fill="#FFF"/><text fill="#000" style="font-size:6px;font-family:Arial;font-weight:700" x="10" y="10">马林康的阅读记录</text><text fill="#000" style="font-size:3px;font-family:Arial" x="10" y="14.4">2025: 38 hours</text><text fill="#000" style="font-size:2.5px;font-family:Arial" x="10" y="18.3">Jan</text><rect width="4" height="4" x="10" y="19.7" fill="#68c06d" rx="1" ry="1"><title>2024-12-30 41.22 mins</title></rect><rect width="4" height="4" x="10" y="25.1" fill="#ace7ae" rx="1" ry="1"><title>2024-12-31 0.3 mins</title></rect><rect width="4" height="4" x="10" y="30.5" fill="#68c06d" rx="1" ry="1"><title>2025-01-01 39.3 mins</title></rect><rect width="4" height="4" x="10" y="35.9" fill="#abe7ad" rx="1" ry="1"><title>2025-01-02 4.75 mins</title></rect><rect width="4" height="4" x="10" y="41.3" fill="#aae6ac" rx="1" ry="1"><title>2025-01-03 15.73 mins</title></rect><rect width="4" height="4" x="10" y="46.7" fill="#549F57" rx="1" ry="1"><title>2025-01-04 63.78 mins</title></rect><rect width="4" height="4" x="10" y="52.1" fill="#a9e6ab" rx="1" ry="1"><title>2025-01-05 27.57 mins</title></rect><rect width="4" height="4" x="15.4" y="19.7" fill="#aae6ac" rx="1" ry="1"><title>2025-01-06 17.88 mins</title></rect><rect width="4" height="4" x="15.4" y="25.1" fill="#aae6ac" rx="1" ry="1"><title>2025-01-07 18.97 mins</title></rect><rect width="4" height="4" x="15.4" y="30.5" fill="#abe7ad" rx="1" ry="1"><title>2025-01-08 7.58 mins</title></rect><rect width="4" height="4" x="15.4" y="35.9" fill="#abe6ad" rx="1" ry="1"><title>2025-01-09 10.97 mins</title></rect><rect width="4" height="4" x="15.4" y="41.3" fill="#abe7ad" rx="1" ry="1"><title>2025-01-10 6.08 mins</title></rect><rect width="4" height="4" x="15.4" y="46.7" fill="#ace7ae" rx="1" ry="1"><title>2025-01-11 0.08 mins</title></rect><rect width="4" height="4" x="15.4" y="52.1" fill="#a9e6ab" rx="1" ry="1"><title>2025-01-12 27.82 mins</title></rect><rect width="4" height="4" x="20.8" y="19.7" fill="#549F57" rx="1" ry="1"><title>2025-01-13 70.28 mins</title></rect><rect width="4" height="4" x="20.8" y="25.1" fill="#abe7ad" rx="1" ry="1"><title>2025-01-14 6.13 mins</title></rect><rect width="4" height="4" x="20.8" y="30.5" fill="#abe7ad" rx="1" ry="1"><title>2025-01-15 8.75 mins</title></rect><rect width="4" height="4" x="20.8" y="35.9" fill="#549F57" rx="1" ry="1"><title>2025-01-16 65.05 mins</title></rect><rect width="4" height="4" x="20.8" y="41.3" fill="#67bf6c" rx="1" ry="1"><title>2025-01-17 57.68 mins</title></rect><rect width="4" height="4" x="20.8" y="46.7" fill="#68c06d" rx="1" ry="1"><title>2025-01-18 31.7 mins</title></rect><rect width="4" height="4" x="20.8" y="52.1" fill="#abe7ad" rx="1" ry="1"><title>2025-01-19 10.22 mins</title></rect><rect width="4" height="4" x="26.2" y="19.7" fill="#abe7ad" rx="1" ry="1"><title>2025-01-20 8.3 mins</title></rect><rect width="4" height="4" x="26.2" y="25.1" fill="#abe7ad" rx="1" ry="1"><title>2025-01-21 5.23 mins</title></rect><rect width="4" height="4" x="26.2" y="30.5" fill="#a9e6ab" rx="1" ry="1"><title>2025-01-22 23.85 mins</title></rect><rect width="4" height="4" x="26.2" y="35.9" fill="#67bf6c" rx="1" ry="1"><title>2025-01-23 58.9 mins</title></rect><rect width="4" height="4" x="26.2" y="41.3" fill="#aae6ac" rx="1" ry="1"><title>2025-01-24 21.2 mins</title></rect><rect width="4" height="4" x="26.2" y="46.7" fill="#ace7ae" rx="1" ry="1"><title>2025-01-25 4.13 mins</title></rect><rect width="4" height="4" x="26.2" y="52.1" fill="#a9e6ac" rx="1" ry="1"><title>2025-01-26 23.18 mins</title></rect><rect width="4" height="4" x="31.6" y="19.7" fill="#abe7ae" rx="1" ry="1"><title>2025-01-27 4.55 mins</title></rect><rect width="4" height="4" x="31.6" y="25.1" fill="#abe7ad" rx="1" ry="1"><title>2025-01-28 9.45 mins</title></rect><rect width="4" height="4" x="31.6" y="30.5" fill="#68c06c" rx="1" ry="1"><title>2025-01-29 53.65 mins</title></rect><rect width="4" height="4" x="31.6" y="35.9" fill="#aae6ac" rx="1" ry="1"><title>2025-01-30 20.97 mins</title></rect><rect width="4" height="4" x="31.6" y="41.3" fill="#abe6ad" rx="1" ry="1"><title>2025-01-31 10.57 mins</title></rect><rect width="4" height="4" x="31.6" y="46.7" fill="#ace7ae" rx="1" ry="1"><title>2025-02-01 4.3 mins</title></rect><rect width="4" height="4" x="31.6" y="52.1" fill="#ace7ae" rx="1" ry="1"><title>2025-02-02 3.58 mins</title></rect><text fill="#000" style="font-size:2.5px;font-family:Arial" x="37" y="18.3">Feb</text><rect width="4" height="4" x="37" y="19.7" fill="#abe7ad" rx="1" ry="1"><title>2025-02-03 5.55 mins</title></rect><rect width="4" height="4" x="37" y="25.1" fill="#abe6ad" rx="1" ry="1"><title>2025-02-04 11.98 mins</title></rect><rect width="4" height="4" x="37" y="30.5" fill="#abe7ad" rx="1" ry="1"><title>2025-02-05 9.72 mins</title></rect><rect width="4" height="4" x="37" y="35.9" fill="#abe7ad" rx="1" ry="1"><title>2025-02-06 7.48 mins</title></rect><rect width="4" height="4" x="37" y="41.3" fill="#abe7ad" rx="1" ry="1"><title>2025-02-07 5.22 mins</title></rect><rect width="4" height="4" x="37" y="46.7" fill="#abe7ad" rx="1" ry="1"><title>2025-02-08 7.18 mins</title></rect><rect width="4" height="4" x="37" y="52.1" fill="#68c06d" rx="1" ry="1"><title>2025-02-09 33.1 mins</title></rect><rect width="4" height="4" x="42.4" y="19.7" fill="#68c06d" rx="1" ry="1"><title>2025-02-10 38.0 mins</title></rect><rect width="4" height="4" x="42.4" y="25.1" fill="#68c06c" rx="1" ry="1"><title>2025-02-11 52.62 mins</title></rect><rect width="4" height="4" x="42.4" y="30.5" fill="#68c06d" rx="1" ry="1"><title>2025-02-12 29.38 mins</title></rect><rect width="4" height="4" x="42.4" y="35.9" fill="#549F57" rx="1" ry="1"><title>2025-02-13 132.97 mins</title></rect><rect width="4" height="4" x="42.4" y="41.3" fill="#67bf6c" rx="1" ry="1"><title>2025-02-14 55.62 mins</title></rect><rect width="4" height="4" x="42.4" y="46.7" fill="#549F57" rx="1" ry="1"><title>2025-02-15 143.03 mins</title></rect><rect width="4" height="4" x="42.4" y="52.1" fill="#549F57" rx="1" ry="1"><title>2025-02-16 219.65 mins</title></rect><rect width="4" height="4" x="47.8" y="19.7" fill="#549F57" rx="1" ry="1"><title>2025-02-17 158.17 mins</title></rect><rect width="4" height="4" x="47.8" y="25.1" fill="#67bf6c" rx="1" ry="1"><title>2025-02-18 55.72 mins</title></rect><rect width="4" height="4" x="47.8" y="30.5" fill="#ace7ae" rx="1" ry="1"><title>2025-02-19 2.4 mins</title></rect><rect width="4" height="4" x="47.8" y="35.9" fill="#68c06d" rx="1" ry="1"><title>2025-02-20 28.95 mins</title></rect><rect width="4" height="4" x="47.8" y="41.3" fill="#abe7ad" rx="1" ry="1"><title>2025-02-21 8.68 mins</title></rect><rect width="4" height="4" x="47.8" y="46.7" fill="#abe7ad" rx="1" ry="1"><title>2025-02-22 6.68 mins</title></rect><rect width="4" height="4" x="47.8" y="52.1" fill="#549F57" rx="1" ry="1"><title>2025-02-23 160.82 mins</title></rect><rect width="4" height="4" x="53.2" y="19.7" fill="#aae6ac" rx="1" ry="1"><title>2025-02-24 15.52 mins</title></rect><rect width="4" height="4" x="53.2" y="25.1" fill="#549F57" rx="1" ry="1"><title>2025-02-25 114.85 mins</title></rect><rect width="4" height="4" x="53.2" y="30.5" fill="#68c06c" rx="1" ry="1"><title>2025-02-26 52.17 mins</title></rect><rect width="4" height="4" x="53.2" y="35.9" fill="#549F57" rx="1" ry="1"><title>2025-02-27 77.58 mins</title></rect><rect width="4" height="4" x="53.2" y="41.3" fill="#549F57" rx="1" ry="1"><title>2025-02-28 74.25 mins</title></rect><rect width="4" height="4" x="53.2" y="46.7" fill="#ace7ae" rx="1" ry="1"><title>2025-03-01 0.6 mins</title></rect><rect width="4" height="4" x="53.2" y="52.1" fill="#ace7ae" rx="1" ry="1"><title>2025-03-02 3.38 mins</title></rect><text fill="#000" style="font-size:2.5px;font-family:Arial" x="58.6" y="18.3">Mar</text><rect width="4" height="4" x="58.6" y="19.7" fill="#68c06d" rx="1" ry="1"><title>2025-03-03 47.07 mins</title></rect><rect width="4" height="4" x="58.6" y="25.1" fill="#EBEDF0" rx="1" ry="1"><title>2025-03-04</title></rect><rect width="4" height="4" x="58.6" y="30.5" fill="#EBEDF0" rx="1" ry="1"><title>2025-03-05</title></rect><rect width="4" height="4" x="58.6" y="35.9" fill="#EBEDF0" rx="1" ry="1"><title>2025-03-06</title></rect><rect width="4" height="4" x="58.6" y="41.3" fill="#EBEDF0" rx="1" ry="1"><title>2025-03-07</title></rect><rect width="4" height="4" x="58.6" y="46.7" fill="#EBEDF0" rx="1" ry="1"><title>2025-03-08</title></rect><rect width="4" height="4" x="58.6" y="52.1" fill="#EBEDF0" rx="1" ry="1"><title>2025-03-09</title></rect><rect width="4" height="4" x="64" y="19.7" fill="#EBEDF0" rx="1" ry="1"><title>2025-03-10</title></rect><rect width="4" height="4" x="64" y="25.1" fill="#EBEDF0" rx="1" ry="1"><title>2025-03-11</title></rect><rect width="4" height="4" x="64" y="30.5" fill="#EBEDF0" rx="1" ry="1"><title>2025-03-12</title></rect><rect width="4" height="4" x="64" y="35.9" fill="#EBEDF0" rx="1" ry="1"><title>2025-03-13</title></rect><rect width="4" height="4" x="64" y="41.3" fill="#EBEDF0" rx="1" ry="1"><title>2025-03-14</title></rect><rect width="4" height="4" x="64" y="46.7" fill="#EBEDF0" rx="1" ry="1"><title>2025-03-15</title></rect><rect width="4" height="4" x="64" y="52.1" fill="#EBEDF0" rx="1" ry="1"><title>2025-03-16</title></rect><rect width="4" height="4" x="69.4" y="19.7" fill="#EBEDF0" rx="1" ry="1"><title>2025-03-17</title></rect><rect width="4" height="4" x="69.4" y="25.1" fill="#EBEDF0" rx="1" ry="1"><title>2025-03-18</title></rect><rect width="4" height="4" x="69.4" y="30.5" fill="#EBEDF0" rx="1" ry="1"><title>2025-03-19</title></rect><rect width="4" height="4" x="69.4" y="35.9" fill="#EBEDF0" rx="1" ry="1"><title>2025-03-20</title></rect><rect width="4" height="4" x="69.4" y="41.3" fill="#EBEDF0" rx="1" ry="1"><title>2025-03-21</title></rect><rect width="4" height="4" x="69.4" y="46.7" fill="#EBEDF0" rx="1" ry="1"><title>2025-03-22</title></rect><rect width="4" height="4" x="69.4" y="52.1" fill="#EBEDF0" rx="1" ry="1"><title>2025-03-23</title></rect><rect width="4" height="4" x="74.8" y="19.7" fill="#EBEDF0" rx="1" ry="1"><title>2025-03-24</title></rect><rect width="4" height="4" x="74.8" y="25.1" fill="#EBEDF0" rx="1" ry="1"><title>2025-03-25</title></rect><rect width="4" height="4" x="74.8" y="30.5" fill="#EBEDF0" rx="1" ry="1"><title>2025-03-26</title></rect><rect width="4" height="4" x="74.8" y="35.9" fill="#EBEDF0" rx="1" ry="1"><title>2025-03-27</title></rect><rect width="4" height="4" x="74.8" y="41.3" fill="#EBEDF0" rx="1" ry="1"><title>2025-03-28</title></rect><rect width="4" height="4" x="74.8" y="46.7" fill="#EBEDF0" rx="1" ry="1"><title>2025-03-29</title></rect><rect width="4" height="4" x="74.8" y="52.1" fill="#EBEDF0" rx="1" ry="1"><title>2025-03-30</title></rect><rect width="4" height="4" x="80.2" y="19.7" fill="#EBEDF0" rx="1" ry="1"><title>2025-03-31</title></rect><rect width="4" height="4" x="80.2" y="25.1" fill="#EBEDF0" rx="1" ry="1"><title>2025-04-01</title></rect><rect width="4" height="4" x="80.2" y="30.5" fill="#EBEDF0" rx="1" ry="1"><title>2025-04-02</title></rect><rect width="4" height="4" x="80.2" y="35.9" fill="#EBEDF0" rx="1" ry="1"><title>2025-04-03</title></rect><rect width="4" height="4" x="80.2" y="41.3" fill="#EBEDF0" rx="1" ry="1"><title>2025-04-04</title></rect><rect width="4" height="4" x="80.2" y="46.7" fill="#EBEDF0" rx="1" ry="1"><title>2025-04-05</title></rect><rect width="4" height="4" x="80.2" y="52.1" fill="#EBEDF0" rx="1" ry="1"><title>2025-04-06</title></rect><text fill="#000" style="font-size:2.5px;font-family:Arial" x="85.6" y="18.3">Apr</text><rect width="4" height="4" x="85.6" y="19.7" fill="#EBEDF0" rx="1" ry="1"><title>2025-04-07</title></rect><rect width="4" height="4" x="85.6" y="25.1" fill="#EBEDF0" rx="1" ry="1"><title>2025-04-08</title></rect><rect width="4" height="4" x="85.6" y="30.5" fill="#EBEDF0" rx="1" ry="1"><title>2025-04-09</title></rect><rect width="4" height="4" x="85.6" y="35.9" fill="#EBEDF0" rx="1" ry="1"><title>2025-04-10</title></rect><rect width="4" height="4" x="85.6" y="41.3" fill="#EBEDF0" rx="1" ry="1"><title>2025-04-11</title></rect><rect width="4" height="4" x="85.6" y="46.7" fill="#EBEDF0" rx="1" ry="1"><title>2025-04-12</title></rect><rect width="4" height="4" x="85.6" y="52.1" fill="#EBEDF0" rx="1" ry="1"><title>2025-04-13</title></rect><rect width="4" height="4" x="91" y="19.7" fill="#EBEDF0" rx="1" ry="1"><title>2025-04-14</title></rect><rect width="4" height="4" x="91" y="25.1" fill="#EBEDF0" rx="1" ry="1"><title>2025-04-15</title></rect><rect width="4" height="4" x="91" y="30.5" fill="#EBEDF0" rx="1" ry="1"><title>2025-04-16</title></rect><rect width="4" height="4" x="91" y="35.9" fill="#EBEDF0" rx="1" ry="1"><title>2025-04-17</title></rect><rect width="4" height="4" x="91" y="41.3" fill="#EBEDF0" rx="1" ry="1"><title>2025-04-18</title></rect><rect width="4" height="4" x="91" y="46.7" fill="#EBEDF0" rx="1" ry="1"><title>2025-04-19</title></rect><rect width="4" height="4" x="91" y="52.1" fill="#EBEDF0" rx="1" ry="1"><title>2025-04-20</title></rect><rect width="4" height="4" x="96.4" y="19.7" fill="#EBEDF0" rx="1" ry="1"><title>2025-04-21</title></rect><rect width="4" height="4" x="96.4" y="25.1" fill="#EBEDF0" rx="1" ry="1"><title>2025-04-22</title></rect><rect width="4" height="4" x="96.4" y="30.5" fill="#EBEDF0" rx="1" ry="1"><title>2025-04-23</title></rect><rect width="4" height="4" x="96.4" y="35.9" fill="#EBEDF0" rx="1" ry="1"><title>2025-04-24</title></rect><rect width="4" height="4" x="96.4" y="41.3" fill="#EBEDF0" rx="1" ry="1"><title>2025-04-25</title></rect><rect width="4" height="4" x="96.4" y="46.7" fill="#EBEDF0" rx="1" ry="1"><title>2025-04-26</title></rect><rect width="4" height="4" x="96.4" y="52.1" fill="#EBEDF0" rx="1" ry="1"><title>2025-04-27</title></rect><rect width="4" height="4" x="101.8" y="19.7" fill="#EBEDF0" rx="1" ry="1"><title>2025-04-28</title></rect><rect width="4" height="4" x="101.8" y="25.1" fill="#EBEDF0" rx="1" ry="1"><title>2025-04-29</title></rect><rect width="4" height="4" x="101.8" y="30.5" fill="#EBEDF0" rx="1" ry="1"><title>2025-04-30</title></rect><rect width="4" height="4" x="101.8" y="35.9" fill="#EBEDF0" rx="1" ry="1"><title>2025-05-01</title></rect><rect width="4" height="4" x="101.8" y="41.3" fill="#EBEDF0" rx="1" ry="1"><title>2025-05-02</title></rect><rect width="4" height="4" x="101.8" y="46.7" fill="#EBEDF0" rx="1" ry="1"><title>2025-05-03</title></rect><rect width="4" height="4" x="101.8" y="52.1" fill="#EBEDF0" rx="1" ry="1"><title>2025-05-04</title></rect><text fill="#000" style="font-size:2.5px;font-family:Arial" x="107.2" y="18.3">May</text><rect width="4" height="4" x="107.2" y="19.7" fill="#EBEDF0" rx="1" ry="1"><title>2025-05-05</title></rect><rect width="4" height="4" x="107.2" y="25.1" fill="#EBEDF0" rx="1" ry="1"><title>2025-05-06</title></rect><rect width="4" height="4" x="107.2" y="30.5" fill="#EBEDF0" rx="1" ry="1"><title>2025-05-07</title></rect><rect width="4" height="4" x="107.2" y="35.9" fill="#EBEDF0" rx="1" ry="1"><title>2025-05-08</title></rect><rect width="4" height="4" x="107.2" y="41.3" fill="#EBEDF0" rx="1" ry="1"><title>2025-05-09</title></rect><rect width="4" height="4" x="107.2" y="46.7" fill="#EBEDF0" rx="1" ry="1"><title>2025-05-10</title></rect><rect width="4" height="4" x="107.2" y="52.1" fill="#EBEDF0" rx="1" ry="1"><title>2025-05-11</title></rect><rect width="4" height="4" x="112.6" y="19.7" fill="#EBEDF0" rx="1" ry="1"><title>2025-05-12</title></rect><rect width="4" height="4" x="112.6" y="25.1" fill="#EBEDF0" rx="1" ry="1"><title>2025-05-13</title></rect><rect width="4" height="4" x="112.6" y="30.5" fill="#EBEDF0" rx="1" ry="1"><title>2025-05-14</title></rect><rect width="4" height="4" x="112.6" y="35.9" fill="#EBEDF0" rx="1" ry="1"><title>2025-05-15</title></rect><rect width="4" height="4" x="112.6" y="41.3" fill="#EBEDF0" rx="1" ry="1"><title>2025-05-16</title></rect><rect width="4" height="4" x="112.6" y="46.7" fill="#EBEDF0" rx="1" ry="1"><title>2025-05-17</title></rect><rect width="4" height="4" x="112.6" y="52.1" fill="#EBEDF0" rx="1" ry="1"><title>2025-05-18</title></rect><rect width="4" height="4" x="118" y="19.7" fill="#EBEDF0" rx="1" ry="1"><title>2025-05-19</title></rect><rect width="4" height="4" x="118" y="25.1" fill="#EBEDF0" rx="1" ry="1"><title>2025-05-20</title></rect><rect width="4" height="4" x="118" y="30.5" fill="#EBEDF0" rx="1" ry="1"><title>2025-05-21</title></rect><rect width="4" height="4" x="118" y="35.9" fill="#EBEDF0" rx="1" ry="1"><title>2025-05-22</title></rect><rect width="4" height="4" x="118" y="41.3" fill="#EBEDF0" rx="1" ry="1"><title>2025-05-23</title></rect><rect width="4" height="4" x="118" y="46.7" fill="#EBEDF0" rx="1" ry="1"><title>2025-05-24</title></rect><rect width="4" height="4" x="118" y="52.1" fill="#EBEDF0" rx="1" ry="1"><title>2025-05-25</title></rect><rect width="4" height="4" x="123.4" y="19.7" fill="#EBEDF0" rx="1" ry="1"><title>2025-05-26</title></rect><rect width="4" height="4" x="123.4" y="25.1" fill="#EBEDF0" rx="1" ry="1"><title>2025-05-27</title></rect><rect width="4" height="4" x="123.4" y="30.5" fill="#EBEDF0" rx="1" ry="1"><title>2025-05-28</title></rect><rect width="4" height="4" x="123.4" y="35.9" fill="#EBEDF0" rx="1" ry="1"><title>2025-05-29</title></rect><rect width="4" height="4" x="123.4" y="41.3" fill="#EBEDF0" rx="1" ry="1"><title>2025-05-30</title></rect><rect width="4" height="4" x="123.4" y="46.7" fill="#EBEDF0" rx="1" ry="1"><title>2025-05-31</title></rect><rect width="4" height="4" x="123.4" y="52.1" fill="#EBEDF0" rx="1" ry="1"><title>2025-06-01</title></rect><text fill="#000" style="font-size:2.5px;font-family:Arial" x="128.8" y="18.3">Jun</text><rect width="4" height="4" x="128.8" y="19.7" fill="#EBEDF0" rx="1" ry="1"><title>2025-06-02</title></rect><rect width="4" height="4" x="128.8" y="25.1" fill="#EBEDF0" rx="1" ry="1"><title>2025-06-03</title></rect><rect width="4" height="4" x="128.8" y="30.5" fill="#EBEDF0" rx="1" ry="1"><title>2025-06-04</title></rect><rect width="4" height="4" x="128.8" y="35.9" fill="#EBEDF0" rx="1" ry="1"><title>2025-06-05</title></rect><rect width="4" height="4" x="128.8" y="41.3" fill="#EBEDF0" rx="1" ry="1"><title>2025-06-06</title></rect><rect width="4" height="4" x="128.8" y="46.7" fill="#EBEDF0" rx="1" ry="1"><title>2025-06-07</title></rect><rect width="4" height="4" x="128.8" y="52.1" fill="#EBEDF0" rx="1" ry="1"><title>2025-06-08</title></rect><rect width="4" height="4" x="134.2" y="19.7" fill="#EBEDF0" rx="1" ry="1"><title>2025-06-09</title></rect><rect width="4" height="4" x="134.2" y="25.1" fill="#EBEDF0" rx="1" ry="1"><title>2025-06-10</title></rect><rect width="4" height="4" x="134.2" y="30.5" fill="#EBEDF0" rx="1" ry="1"><title>2025-06-11</title></rect><rect width="4" height="4" x="134.2" y="35.9" fill="#EBEDF0" rx="1" ry="1"><title>2025-06-12</title></rect><rect width="4" height="4" x="134.2" y="41.3" fill="#EBEDF0" rx="1" ry="1"><title>2025-06-13</title></rect><rect width="4" height="4" x="134.2" y="46.7" fill="#EBEDF0" rx="1" ry="1"><title>2025-06-14</title></rect><rect width="4" height="4" x="134.2" y="52.1" fill="#EBEDF0" rx="1" ry="1"><title>2025-06-15</title></rect><rect width="4" height="4" x="139.6" y="19.7" fill="#EBEDF0" rx="1" ry="1"><title>2025-06-16</title></rect><rect width="4" height="4" x="139.6" y="25.1" fill="#EBEDF0" rx="1" ry="1"><title>2025-06-17</title></rect><rect width="4" height="4" x="139.6" y="30.5" fill="#EBEDF0" rx="1" ry="1"><title>2025-06-18</title></rect><rect width="4" height="4" x="139.6" y="35.9" fill="#EBEDF0" rx="1" ry="1"><title>2025-06-19</title></rect><rect width="4" height="4" x="139.6" y="41.3" fill="#EBEDF0" rx="1" ry="1"><title>2025-06-20</title></rect><rect width="4" height="4" x="139.6" y="46.7" fill="#EBEDF0" rx="1" ry="1"><title>2025-06-21</title></rect><rect width="4" height="4" x="139.6" y="52.1" fill="#EBEDF0" rx="1" ry="1"><title>2025-06-22</title></rect><rect width="4" height="4" x="145" y="19.7" fill="#EBEDF0" rx="1" ry="1"><title>2025-06-23</title></rect><rect width="4" height="4" x="145" y="25.1" fill="#EBEDF0" rx="1" ry="1"><title>2025-06-24</title></rect><rect width="4" height="4" x="145" y="30.5" fill="#EBEDF0" rx="1" ry="1"><title>2025-06-25</title></rect><rect width="4" height="4" x="145" y="35.9" fill="#EBEDF0" rx="1" ry="1"><title>2025-06-26</title></rect><rect width="4" height="4" x="145" y="41.3" fill="#EBEDF0" rx="1" ry="1"><title>2025-06-27</title></rect><rect width="4" height="4" x="145" y="46.7" fill="#EBEDF0" rx="1" ry="1"><title>2025-06-28</title></rect><rect width="4" height="4" x="145" y="52.1" fill="#EBEDF0" rx="1" ry="1"><title>2025-06-29</title></rect><rect width="4" height="4" x="150.4" y="19.7" fill="#EBEDF0" rx="1" ry="1"><title>2025-06-30</title></rect><rect width="4" height="4" x="150.4" y="25.1" fill="#EBEDF0" rx="1" ry="1"><title>2025-07-01</title></rect><rect width="4" height="4" x="150.4" y="30.5" fill="#EBEDF0" rx="1" ry="1"><title>2025-07-02</title></rect><rect width="4" height="4" x="150.4" y="35.9" fill="#EBEDF0" rx="1" ry="1"><title>2025-07-03</title></rect><rect width="4" height="4" x="150.4" y="41.3" fill="#EBEDF0" rx="1" ry="1"><title>2025-07-04</title></rect><rect width="4" height="4" x="150.4" y="46.7" fill="#EBEDF0" rx="1" ry="1"><title>2025-07-05</title></rect><rect width="4" height="4" x="150.4" y="52.1" fill="#EBEDF0" rx="1" ry="1"><title>2025-07-06</title></rect><text fill="#000" style="font-size:2.5px;font-family:Arial" x="155.8" y="18.3">Jul</text><rect width="4" height="4" x="155.8" y="19.7" fill="#EBEDF0" rx="1" ry="1"><title>2025-07-07</title></rect><rect width="4" height="4" x="155.8" y="25.1" fill="#EBEDF0" rx="1" ry="1"><title>2025-07-08</title></rect><rect width="4" height="4" x="155.8" y="30.5" fill="#EBEDF0" rx="1" ry="1"><title>2025-07-09</title></rect><rect width="4" height="4" x="155.8" y="35.9" fill="#EBEDF0" rx="1" ry="1"><title>2025-07-10</title></rect><rect width="4" height="4" x="155.8" y="41.3" fill="#EBEDF0" rx="1" ry="1"><title>2025-07-11</title></rect><rect width="4" height="4" x="155.8" y="46.7" fill="#EBEDF0" rx="1" ry="1"><title>2025-07-12</title></rect><rect width="4" height="4" x="155.8" y="52.1" fill="#EBEDF0" rx="1" ry="1"><title>2025-07-13</title></rect><rect width="4" height="4" x="161.2" y="19.7" fill="#EBEDF0" rx="1" ry="1"><title>2025-07-14</title></rect><rect width="4" height="4" x="161.2" y="25.1" fill="#EBEDF0" rx="1" ry="1"><title>2025-07-15</title></rect><rect width="4" height="4" x="161.2" y="30.5" fill="#EBEDF0" rx="1" ry="1"><title>2025-07-16</title></rect><rect width="4" height="4" x="161.2" y="35.9" fill="#EBEDF0" rx="1" ry="1"><title>2025-07-17</title></rect><rect width="4" height="4" x="161.2" y="41.3" fill="#EBEDF0" rx="1" ry="1"><title>2025-07-18</title></rect><rect width="4" height="4" x="161.2" y="46.7" fill="#EBEDF0" rx="1" ry="1"><title>2025-07-19</title></rect><rect width="4" height="4" x="161.2" y="52.1" fill="#EBEDF0" rx="1" ry="1"><title>2025-07-20</title></rect><rect width="4" height="4" x="166.6" y="19.7" fill="#EBEDF0" rx="1" ry="1"><title>2025-07-21</title></rect><rect width="4" height="4" x="166.6" y="25.1" fill="#EBEDF0" rx="1" ry="1"><title>2025-07-22</title></rect><rect width="4" height="4" x="166.6" y="30.5" fill="#EBEDF0" rx="1" ry="1"><title>2025-07-23</title></rect><rect width="4" height="4" x="166.6" y="35.9" fill="#EBEDF0" rx="1" ry="1"><title>2025-07-24</title></rect><rect width="4" height="4" x="166.6" y="41.3" fill="#EBEDF0" rx="1" ry="1"><title>2025-07-25</title></rect><rect width="4" height="4" x="166.6" y="46.7" fill="#EBEDF0" rx="1" ry="1"><title>2025-07-26</title></rect><rect width="4" height="4" x="166.6" y="52.1" fill="#EBEDF0" rx="1" ry="1"><title>2025-07-27</title></rect><rect width="4" height="4" x="172" y="19.7" fill="#EBEDF0" rx="1" ry="1"><title>2025-07-28</title></rect><rect width="4" height="4" x="172" y="25.1" fill="#EBEDF0" rx="1" ry="1"><title>2025-07-29</title></rect><rect width="4" height="4" x="172" y="30.5" fill="#EBEDF0" rx="1" ry="1"><title>2025-07-30</title></rect><rect width="4" height="4" x="172" y="35.9" fill="#EBEDF0" rx="1" ry="1"><title>2025-07-31</title></rect><rect width="4" height="4" x="172" y="41.3" fill="#EBEDF0" rx="1" ry="1"><title>2025-08-01</title></rect><rect width="4" height="4" x="172" y="46.7" fill="#EBEDF0" rx="1" ry="1"><title>2025-08-02</title></rect><rect width="4" height="4" x="172" y="52.1" fill="#EBEDF0" rx="1" ry="1"><title>2025-08-03</title></rect><text fill="#000" style="font-size:2.5px;font-family:Arial" x="177.4" y="18.3">Aug</text><rect width="4" height="4" x="177.4" y="19.7" fill="#EBEDF0" rx="1" ry="1"><title>2025-08-04</title></rect><rect width="4" height="4" x="177.4" y="25.1" fill="#EBEDF0" rx="1" ry="1"><title>2025-08-05</title></rect><rect width="4" height="4" x="177.4" y="30.5" fill="#EBEDF0" rx="1" ry="1"><title>2025-08-06</title></rect><rect width="4" height="4" x="177.4" y="35.9" fill="#EBEDF0" rx="1" ry="1"><title>2025-08-07</title></rect><rect width="4" height="4" x="177.4" y="41.3" fill="#EBEDF0" rx="1" ry="1"><title>2025-08-08</title></rect><rect width="4" height="4" x="177.4" y="46.7" fill="#EBEDF0" rx="1" ry="1"><title>2025-08-09</title></rect><rect width="4" height="4" x="177.4" y="52.1" fill="#EBEDF0" rx="1" ry="1"><title>2025-08-10</title></rect><rect width="4" height="4" x="182.8" y="19.7" fill="#EBEDF0" rx="1" ry="1"><title>2025-08-11</title></rect><rect width="4" height="4" x="182.8" y="25.1" fill="#EBEDF0" rx="1" ry="1"><title>2025-08-12</title></rect><rect width="4" height="4" x="182.8" y="30.5" fill="#EBEDF0" rx="1" ry="1"><title>2025-08-13</title></rect><rect width="4" height="4" x="182.8" y="35.9" fill="#EBEDF0" rx="1" ry="1"><title>2025-08-14</title></rect><rect width="4" height="4" x="182.8" y="41.3" fill="#EBEDF0" rx="1" ry="1"><title>2025-08-15</title></rect><rect width="4" height="4" x="182.8" y="46.7" fill="#EBEDF0" rx="1" ry="1"><title>2025-08-16</title></rect><rect width="4" height="4" x="182.8" y="52.1" fill="#EBEDF0" rx="1" ry="1"><title>2025-08-17</title></rect><rect width="4" height="4" x="188.2" y="19.7" fill="#EBEDF0" rx="1" ry="1"><title>2025-08-18</title></rect><rect width="4" height="4" x="188.2" y="25.1" fill="#EBEDF0" rx="1" ry="1"><title>2025-08-19</title></rect><rect width="4" height="4" x="188.2" y="30.5" fill="#EBEDF0" rx="1" ry="1"><title>2025-08-20</title></rect><rect width="4" height="4" x="188.2" y="35.9" fill="#EBEDF0" rx="1" ry="1"><title>2025-08-21</title></rect><rect width="4" height="4" x="188.2" y="41.3" fill="#EBEDF0" rx="1" ry="1"><title>2025-08-22</title></rect><rect width="4" height="4" x="188.2" y="46.7" fill="#EBEDF0" rx="1" ry="1"><title>2025-08-23</title></rect><rect width="4" height="4" x="188.2" y="52.1" fill="#EBEDF0" rx="1" ry="1"><title>2025-08-24</title></rect><rect width="4" height="4" x="193.6" y="19.7" fill="#EBEDF0" rx="1" ry="1"><title>2025-08-25</title></rect><rect width="4" height="4" x="193.6" y="25.1" fill="#EBEDF0" rx="1" ry="1"><title>2025-08-26</title></rect><rect width="4" height="4" x="193.6" y="30.5" fill="#EBEDF0" rx="1" ry="1"><title>2025-08-27</title></rect><rect width="4" height="4" x="193.6" y="35.9" fill="#EBEDF0" rx="1" ry="1"><title>2025-08-28</title></rect><rect width="4" height="4" x="193.6" y="41.3" fill="#EBEDF0" rx="1" ry="1"><title>2025-08-29</title></rect><rect width="4" height="4" x="193.6" y="46.7" fill="#EBEDF0" rx="1" ry="1"><title>2025-08-30</title></rect><rect width="4" height="4" x="193.6" y="52.1" fill="#EBEDF0" rx="1" ry="1"><title>2025-08-31</title></rect><text fill="#000" style="font-size:2.5px;font-family:Arial" x="199" y="18.3">Sep</text><rect width="4" height="4" x="199" y="19.7" fill="#EBEDF0" rx="1" ry="1"><title>2025-09-01</title></rect><rect width="4" height="4" x="199" y="25.1" fill="#EBEDF0" rx="1" ry="1"><title>2025-09-02</title></rect><rect width="4" height="4" x="199" y="30.5" fill="#EBEDF0" rx="1" ry="1"><title>2025-09-03</title></rect><rect width="4" height="4" x="199" y="35.9" fill="#EBEDF0" rx="1" ry="1"><title>2025-09-04</title></rect><rect width="4" height="4" x="199" y="41.3" fill="#EBEDF0" rx="1" ry="1"><title>2025-09-05</title></rect><rect width="4" height="4" x="199" y="46.7" fill="#EBEDF0" rx="1" ry="1"><title>2025-09-06</title></rect><rect width="4" height="4" x="199" y="52.1" fill="#EBEDF0" rx="1" ry="1"><title>2025-09-07</title></rect><rect width="4" height="4" x="204.4" y="19.7" fill="#EBEDF0" rx="1" ry="1"><title>2025-09-08</title></rect><rect width="4" height="4" x="204.4" y="25.1" fill="#EBEDF0" rx="1" ry="1"><title>2025-09-09</title></rect><rect width="4" height="4" x="204.4" y="30.5" fill="#EBEDF0" rx="1" ry="1"><title>2025-09-10</title></rect><rect width="4" height="4" x="204.4" y="35.9" fill="#EBEDF0" rx="1" ry="1"><title>2025-09-11</title></rect><rect width="4" height="4" x="204.4" y="41.3" fill="#EBEDF0" rx="1" ry="1"><title>2025-09-12</title></rect><rect width="4" height="4" x="204.4" y="46.7" fill="#EBEDF0" rx="1" ry="1"><title>2025-09-13</title></rect><rect width="4" height="4" x="204.4" y="52.1" fill="#EBEDF0" rx="1" ry="1"><title>2025-09-14</title></rect><rect width="4" height="4" x="209.8" y="19.7" fill="#EBEDF0" rx="1" ry="1"><title>2025-09-15</title></rect><rect width="4" height="4" x="209.8" y="25.1" fill="#EBEDF0" rx="1" ry="1"><title>2025-09-16</title></rect><rect width="4" height="4" x="209.8" y="30.5" fill="#EBEDF0" rx="1" ry="1"><title>2025-09-17</title></rect><rect width="4" height="4" x="209.8" y="35.9" fill="#EBEDF0" rx="1" ry="1"><title>2025-09-18</title></rect><rect width="4" height="4" x="209.8" y="41.3" fill="#EBEDF0" rx="1" ry="1"><title>2025-09-19</title></rect><rect width="4" height="4" x="209.8" y="46.7" fill="#EBEDF0" rx="1" ry="1"><title>2025-09-20</title></rect><rect width="4" height="4" x="209.8" y="52.1" fill="#EBEDF0" rx="1" ry="1"><title>2025-09-21</title></rect><rect width="4" height="4" x="215.2" y="19.7" fill="#EBEDF0" rx="1" ry="1"><title>2025-09-22</title></rect><rect width="4" height="4" x="215.2" y="25.1" fill="#EBEDF0" rx="1" ry="1"><title>2025-09-23</title></rect><rect width="4" height="4" x="215.2" y="30.5" fill="#EBEDF0" rx="1" ry="1"><title>2025-09-24</title></rect><rect width="4" height="4" x="215.2" y="35.9" fill="#EBEDF0" rx="1" ry="1"><title>2025-09-25</title></rect><rect width="4" height="4" x="215.2" y="41.3" fill="#EBEDF0" rx="1" ry="1"><title>2025-09-26</title></rect><rect width="4" height="4" x="215.2" y="46.7" fill="#EBEDF0" rx="1" ry="1"><title>2025-09-27</title></rect><rect width="4" height="4" x="215.2" y="52.1" fill="#EBEDF0" rx="1" ry="1"><title>2025-09-28</title></rect><rect width="4" height="4" x="220.6" y="19.7" fill="#EBEDF0" rx="1" ry="1"><title>2025-09-29</title></rect><rect width="4" height="4" x="220.6" y="25.1" fill="#EBEDF0" rx="1" ry="1"><title>2025-09-30</title></rect><rect width="4" height="4" x="220.6" y="30.5" fill="#EBEDF0" rx="1" ry="1"><title>2025-10-01</title></rect><rect width="4" height="4" x="220.6" y="35.9" fill="#EBEDF0" rx="1" ry="1"><title>2025-10-02</title></rect><rect width="4" height="4" x="220.6" y="41.3" fill="#EBEDF0" rx="1" ry="1"><title>2025-10-03</title></rect><rect width="4" height="4" x="220.6" y="46.7" fill="#EBEDF0" rx="1" ry="1"><title>2025-10-04</title></rect><rect width="4" height="4" x="220.6" y="52.1" fill="#EBEDF0" rx="1" ry="1"><title>2025-10-05</title></rect><text fill="#000" style="font-size:2.5px;font-family:Arial" x="226" y="18.3">Oct</text><rect width="4" height="4" x="226" y="19.7" fill="#EBEDF0" rx="1" ry="1"><title>2025-10-06</title></rect><rect width="4" height="4" x="226" y="25.1" fill="#EBEDF0" rx="1" ry="1"><title>2025-10-07</title></rect><rect width="4" height="4" x="226" y="30.5" fill="#EBEDF0" rx="1" ry="1"><title>2025-10-08</title></rect><rect width="4" height="4" x="226" y="35.9" fill="#EBEDF0" rx="1" ry="1"><title>2025-10-09</title></rect><rect width="4" height="4" x="226" y="41.3" fill="#EBEDF0" rx="1" ry="1"><title>2025-10-10</title></rect><rect width="4" height="4" x="226" y="46.7" fill="#EBEDF0" rx="1" ry="1"><title>2025-10-11</title></rect><rect width="4" height="4" x="226" y="52.1" fill="#EBEDF0" rx="1" ry="1"><title>2025-10-12</title></rect><rect width="4" height="4" x="231.4" y="19.7" fill="#EBEDF0" rx="1" ry="1"><title>2025-10-13</title></rect><rect width="4" height="4" x="231.4" y="25.1" fill="#EBEDF0" rx="1" ry="1"><title>2025-10-14</title></rect><rect width="4" height="4" x="231.4" y="30.5" fill="#EBEDF0" rx="1" ry="1"><title>2025-10-15</title></rect><rect width="4" height="4" x="231.4" y="35.9" fill="#EBEDF0" rx="1" ry="1"><title>2025-10-16</title></rect><rect width="4" height="4" x="231.4" y="41.3" fill="#EBEDF0" rx="1" ry="1"><title>2025-10-17</title></rect><rect width="4" height="4" x="231.4" y="46.7" fill="#EBEDF0" rx="1" ry="1"><title>2025-10-18</title></rect><rect width="4" height="4" x="231.4" y="52.1" fill="#EBEDF0" rx="1" ry="1"><title>2025-10-19</title></rect><rect width="4" height="4" x="236.8" y="19.7" fill="#EBEDF0" rx="1" ry="1"><title>2025-10-20</title></rect><rect width="4" height="4" x="236.8" y="25.1" fill="#EBEDF0" rx="1" ry="1"><title>2025-10-21</title></rect><rect width="4" height="4" x="236.8" y="30.5" fill="#EBEDF0" rx="1" ry="1"><title>2025-10-22</title></rect><rect width="4" height="4" x="236.8" y="35.9" fill="#EBEDF0" rx="1" ry="1"><title>2025-10-23</title></rect><rect width="4" height="4" x="236.8" y="41.3" fill="#EBEDF0" rx="1" ry="1"><title>2025-10-24</title></rect><rect width="4" height="4" x="236.8" y="46.7" fill="#EBEDF0" rx="1" ry="1"><title>2025-10-25</title></rect><rect width="4" height="4" x="236.8" y="52.1" fill="#EBEDF0" rx="1" ry="1"><title>2025-10-26</title></rect><rect width="4" height="4" x="242.2" y="19.7" fill="#EBEDF0" rx="1" ry="1"><title>2025-10-27</title></rect><rect width="4" height="4" x="242.2" y="25.1" fill="#EBEDF0" rx="1" ry="1"><title>2025-10-28</title></rect><rect width="4" height="4" x="242.2" y="30.5" fill="#EBEDF0" rx="1" ry="1"><title>2025-10-29</title></rect><rect width="4" height="4" x="242.2" y="35.9" fill="#EBEDF0" rx="1" ry="1"><title>2025-10-30</title></rect><rect width="4" height="4" x="242.2" y="41.3" fill="#EBEDF0" rx="1" ry="1"><title>2025-10-31</title></rect><rect width="4" height="4" x="242.2" y="46.7" fill="#EBEDF0" rx="1" ry="1"><title>2025-11-01</title></rect><rect width="4" height="4" x="242.2" y="52.1" fill="#EBEDF0" rx="1" ry="1"><title>2025-11-02</title></rect><text fill="#000" style="font-size:2.5px;font-family:Arial" x="247.6" y="18.3">Nov</text><rect width="4" height="4" x="247.6" y="19.7" fill="#EBEDF0" rx="1" ry="1"><title>2025-11-03</title></rect><rect width="4" height="4" x="247.6" y="25.1" fill="#EBEDF0" rx="1" ry="1"><title>2025-11-04</title></rect><rect width="4" height="4" x="247.6" y="30.5" fill="#EBEDF0" rx="1" ry="1"><title>2025-11-05</title></rect><rect width="4" height="4" x="247.6" y="35.9" fill="#EBEDF0" rx="1" ry="1"><title>2025-11-06</title></rect><rect width="4" height="4" x="247.6" y="41.3" fill="#EBEDF0" rx="1" ry="1"><title>2025-11-07</title></rect><rect width="4" height="4" x="247.6" y="46.7" fill="#EBEDF0" rx="1" ry="1"><title>2025-11-08</title></rect><rect width="4" height="4" x="247.6" y="52.1" fill="#EBEDF0" rx="1" ry="1"><title>2025-11-09</title></rect><rect width="4" height="4" x="253" y="19.7" fill="#EBEDF0" rx="1" ry="1"><title>2025-11-10</title></rect><rect width="4" height="4" x="253" y="25.1" fill="#EBEDF0" rx="1" ry="1"><title>2025-11-11</title></rect><rect width="4" height="4" x="253" y="30.5" fill="#EBEDF0" rx="1" ry="1"><title>2025-11-12</title></rect><rect width="4" height="4" x="253" y="35.9" fill="#EBEDF0" rx="1" ry="1"><title>2025-11-13</title></rect><rect width="4" height="4" x="253" y="41.3" fill="#EBEDF0" rx="1" ry="1"><title>2025-11-14</title></rect><rect width="4" height="4" x="253" y="46.7" fill="#EBEDF0" rx="1" ry="1"><title>2025-11-15</title></rect><rect width="4" height="4" x="253" y="52.1" fill="#EBEDF0" rx="1" ry="1"><title>2025-11-16</title></rect><rect width="4" height="4" x="258.4" y="19.7" fill="#EBEDF0" rx="1" ry="1"><title>2025-11-17</title></rect><rect width="4" height="4" x="258.4" y="25.1" fill="#EBEDF0" rx="1" ry="1"><title>2025-11-18</title></rect><rect width="4" height="4" x="258.4" y="30.5" fill="#EBEDF0" rx="1" ry="1"><title>2025-11-19</title></rect><rect width="4" height="4" x="258.4" y="35.9" fill="#EBEDF0" rx="1" ry="1"><title>2025-11-20</title></rect><rect width="4" height="4" x="258.4" y="41.3" fill="#EBEDF0" rx="1" ry="1"><title>2025-11-21</title></rect><rect width="4" height="4" x="258.4" y="46.7" fill="#EBEDF0" rx="1" ry="1"><title>2025-11-22</title></rect><rect width="4" height="4" x="258.4" y="52.1" fill="#EBEDF0" rx="1" ry="1"><title>2025-11-23</title></rect><rect width="4" height="4" x="263.8" y="19.7" fill="#EBEDF0" rx="1" ry="1"><title>2025-11-24</title></rect><rect width="4" height="4" x="263.8" y="25.1" fill="#EBEDF0" rx="1" ry="1"><title>2025-11-25</title></rect><rect width="4" height="4" x="263.8" y="30.5" fill="#EBEDF0" rx="1" ry="1"><title>2025-11-26</title></rect><rect width="4" height="4" x="263.8" y="35.9" fill="#EBEDF0" rx="1" ry="1"><title>2025-11-27</title></rect><rect width="4" height="4" x="263.8" y="41.3" fill="#EBEDF0" rx="1" ry="1"><title>2025-11-28</title></rect><rect width="4" height="4" x="263.8" y="46.7" fill="#EBEDF0" rx="1" ry="1"><title>2025-11-29</title></rect><rect width="4" height="4" x="263.8" y="52.1" fill="#EBEDF0" rx="1" ry="1"><title>2025-11-30</title></rect><text fill="#000" style="font-size:2.5px;font-family:Arial" x="269.2" y="18.3">Dec</text><rect width="4" height="4" x="269.2" y="19.7" fill="#EBEDF0" rx="1" ry="1"><title>2025-12-01</title></rect><rect width="4" height="4" x="269.2" y="25.1" fill="#EBEDF0" rx="1" ry="1"><title>2025-12-02</title></rect><rect width="4" height="4" x="269.2" y="30.5" fill="#EBEDF0" rx="1" ry="1"><title>2025-12-03</title></rect><rect width="4" height="4" x="269.2" y="35.9" fill="#EBEDF0" rx="1" ry="1"><title>2025-12-04</title></rect><rect width="4" height="4" x="269.2" y="41.3" fill="#EBEDF0" rx="1" ry="1"><title>2025-12-05</title></rect><rect width="4" height="4" x="269.2" y="46.7" fill="#EBEDF0" rx="1" ry="1"><title>2025-12-06</title></rect><rect width="4" height="4" x="269.2" y="52.1" fill="#EBEDF0" rx="1" ry="1"><title>2025-12-07</title></rect><rect width="4" height="4" x="274.6" y="19.7" fill="#EBEDF0" rx="1" ry="1"><title>2025-12-08</title></rect><rect width="4" height="4" x="274.6" y="25.1" fill="#EBEDF0" rx="1" ry="1"><title>2025-12-09</title></rect><rect width="4" height="4" x="274.6" y="30.5" fill="#EBEDF0" rx="1" ry="1"><title>2025-12-10</title></rect><rect width="4" height="4" x="274.6" y="35.9" fill="#EBEDF0" rx="1" ry="1"><title>2025-12-11</title></rect><rect width="4" height="4" x="274.6" y="41.3" fill="#EBEDF0" rx="1" ry="1"><title>2025-12-12</title></rect><rect width="4" height="4" x="274.6" y="46.7" fill="#EBEDF0" rx="1" ry="1"><title>2025-12-13</title></rect><rect width="4" height="4" x="274.6" y="52.1" fill="#EBEDF0" rx="1" ry="1"><title>2025-12-14</title></rect><rect width="4" height="4" x="280" y="19.7" fill="#EBEDF0" rx="1" ry="1"><title>2025-12-15</title></rect><rect width="4" height="4" x="280" y="25.1" fill="#EBEDF0" rx="1" ry="1"><title>2025-12-16</title></rect><rect width="4" height="4" x="280" y="30.5" fill="#EBEDF0" rx="1" ry="1"><title>2025-12-17</title></rect><rect width="4" height="4" x="280" y="35.9" fill="#EBEDF0" rx="1" ry="1"><title>2025-12-18</title></rect><rect width="4" height="4" x="280" y="41.3" fill="#EBEDF0" rx="1" ry="1"><title>2025-12-19</title></rect><rect width="4" height="4" x="280" y="46.7" fill="#EBEDF0" rx="1" ry="1"><title>2025-12-20</title></rect><rect width="4" height="4" x="280" y="52.1" fill="#EBEDF0" rx="1" ry="1"><title>2025-12-21</title></rect><rect width="4" height="4" x="285.4" y="19.7" fill="#EBEDF0" rx="1" ry="1"><title>2025-12-22</title></rect><rect width="4" height="4" x="285.4" y="25.1" fill="#EBEDF0" rx="1" ry="1"><title>2025-12-23</title></rect><rect width="4" height="4" x="285.4" y="30.5" fill="#EBEDF0" rx="1" ry="1"><title>2025-12-24</title></rect><rect width="4" height="4" x="285.4" y="35.9" fill="#EBEDF0" rx="1" ry="1"><title>2025-12-25</title></rect><rect width="4" height="4" x="285.4" y="41.3" fill="#EBEDF0" rx="1" ry="1"><title>2025-12-26</title></rect><rect width="4" height="4" x="285.4" y="46.7" fill="#EBEDF0" rx="1" ry="1"><title>2025-12-27</title></rect><rect width="4" height="4" x="285.4" y="52.1" fill="#EBEDF0" rx="1" ry="1"><title>2025-12-28</title></rect><rect width="4" height="4" x="290.8" y="19.7" fill="#EBEDF0" rx="1" ry="1"><title>2025-12-29</title></rect><rect width="4" height="4" x="290.8" y="25.1" fill="#EBEDF0" rx="1" ry="1"><title>2025-12-30</title></rect><rect width="4" height="4" x="290.8" y="30.5" fill="#EBEDF0" rx="1" ry="1"><title>2025-12-31</title></rect></svg>