<svg xmlns="http://www.w3.org/2000/svg" xmlns:ev="http://www.w3.org/2001/xml-events" xmlns:xlink="http://www.w3.org/1999/xlink" width="1157.291" height="57.5mm" baseProfile="full" version="1.1" viewBox="0 0 306.2 57.5"><rect width="306.2" height="57.5" x="0" y="0" fill="#FFF"/><text fill="#000" style="font-size:6px;font-family:Arial;font-weight:700" x="10" y="10">马林康的阅读记录</text><text fill="#000" style="font-size:3px;font-family:Arial" x="10" y="14.4">2024: 248 hours</text><text fill="#000" style="font-size:2.5px;font-family:Arial" x="10" y="18.3">Jan</text><rect width="4" height="4" x="10" y="19.7" fill="#aae6ac" rx="1" ry="1"><title>2024-01-01 16.07 mins</title></rect><rect width="4" height="4" x="10" y="25.1" fill="#68c06d" rx="1" ry="1"><title>2024-01-02 49.37 mins</title></rect><rect width="4" height="4" x="10" y="30.5" fill="#67bf6c" rx="1" ry="1"><title>2024-01-03 56.97 mins</title></rect><rect width="4" height="4" x="10" y="35.9" fill="#aae6ac" rx="1" ry="1"><title>2024-01-04 14.93 mins</title></rect><rect width="4" height="4" x="10" y="41.3" fill="#aae6ac" rx="1" ry="1"><title>2024-01-05 14.37 mins</title></rect><rect width="4" height="4" x="10" y="46.7" fill="#abe6ad" rx="1" ry="1"><title>2024-01-06 11.58 mins</title></rect><rect width="4" height="4" x="10" y="52.1" fill="#68c06d" rx="1" ry="1"><title>2024-01-07 28.45 mins</title></rect><rect width="4" height="4" x="15.4" y="19.7" fill="#68c06d" rx="1" ry="1"><title>2024-01-08 48.03 mins</title></rect><rect width="4" height="4" x="15.4" y="25.1" fill="#ace7ae" rx="1" ry="1"><title>2024-01-09 2.82 mins</title></rect><rect width="4" height="4" x="15.4" y="30.5" fill="#ace7ae" rx="1" ry="1"><title>2024-01-10 3.63 mins</title></rect><rect width="4" height="4" x="15.4" y="35.9" fill="#aae6ac" rx="1" ry="1"><title>2024-01-11 20.47 mins</title></rect><rect width="4" height="4" x="15.4" y="41.3" fill="#a9e6ab" rx="1" ry="1"><title>2024-01-12 23.35 mins</title></rect><rect width="4" height="4" x="15.4" y="46.7" fill="#549F57" rx="1" ry="1"><title>2024-01-13 118.28 mins</title></rect><rect width="4" height="4" x="15.4" y="52.1" fill="#abe7ad" rx="1" ry="1"><title>2024-01-14 9.68 mins</title></rect><rect width="4" height="4" x="20.8" y="19.7" fill="#aae6ac" rx="1" ry="1"><title>2024-01-15 14.2 mins</title></rect><rect width="4" height="4" x="20.8" y="25.1" fill="#abe6ad" rx="1" ry="1"><title>2024-01-16 12.03 mins</title></rect><rect width="4" height="4" x="20.8" y="30.5" fill="#a9e6ac" rx="1" ry="1"><title>2024-01-17 22.77 mins</title></rect><rect width="4" height="4" x="20.8" y="35.9" fill="#a9e6ab" rx="1" ry="1"><title>2024-01-18 26.48 mins</title></rect><rect width="4" height="4" x="20.8" y="41.3" fill="#68c06d" rx="1" ry="1"><title>2024-01-19 33.35 mins</title></rect><rect width="4" height="4" x="20.8" y="46.7" fill="#67bf6c" rx="1" ry="1"><title>2024-01-20 61.62 mins</title></rect><rect width="4" height="4" x="20.8" y="52.1" fill="#549F57" rx="1" ry="1"><title>2024-01-21 73.17 mins</title></rect><rect width="4" height="4" x="26.2" y="19.7" fill="#abe7ad" rx="1" ry="1"><title>2024-01-22 5.87 mins</title></rect><rect width="4" height="4" x="26.2" y="25.1" fill="#68c06d" rx="1" ry="1"><title>2024-01-23 40.82 mins</title></rect><rect width="4" height="4" x="26.2" y="30.5" fill="#abe6ad" rx="1" ry="1"><title>2024-01-24 13.53 mins</title></rect><rect width="4" height="4" x="26.2" y="35.9" fill="#abe7ad" rx="1" ry="1"><title>2024-01-25 7.7 mins</title></rect><rect width="4" height="4" x="26.2" y="41.3" fill="#aae6ac" rx="1" ry="1"><title>2024-01-26 15.63 mins</title></rect><rect width="4" height="4" x="26.2" y="46.7" fill="#abe6ad" rx="1" ry="1"><title>2024-01-27 10.52 mins</title></rect><rect width="4" height="4" x="26.2" y="52.1" fill="#aae6ac" rx="1" ry="1"><title>2024-01-28 15.68 mins</title></rect><rect width="4" height="4" x="31.6" y="19.7" fill="#abe7ad" rx="1" ry="1"><title>2024-01-29 5.6 mins</title></rect><rect width="4" height="4" x="31.6" y="25.1" fill="#abe7ad" rx="1" ry="1"><title>2024-01-30 10.2 mins</title></rect><rect width="4" height="4" x="31.6" y="30.5" fill="#aae6ac" rx="1" ry="1"><title>2024-01-31 15.72 mins</title></rect><rect width="4" height="4" x="31.6" y="35.9" fill="#ace7ae" rx="1" ry="1"><title>2024-02-01 2.8 mins</title></rect><rect width="4" height="4" x="31.6" y="41.3" fill="#aae6ac" rx="1" ry="1"><title>2024-02-02 14.55 mins</title></rect><rect width="4" height="4" x="31.6" y="46.7" fill="#ace7ae" rx="1" ry="1"><title>2024-02-03 4.17 mins</title></rect><rect width="4" height="4" x="31.6" y="52.1" fill="#abe6ad" rx="1" ry="1"><title>2024-02-04 13.32 mins</title></rect><text fill="#000" style="font-size:2.5px;font-family:Arial" x="37" y="18.3">Feb</text><rect width="4" height="4" x="37" y="19.7" fill="#ace7ae" rx="1" ry="1"><title>2024-02-05 0.75 mins</title></rect><rect width="4" height="4" x="37" y="25.1" fill="#ace7ae" rx="1" ry="1"><title>2024-02-06 1.37 mins</title></rect><rect width="4" height="4" x="37" y="30.5" fill="#ace7ae" rx="1" ry="1"><title>2024-02-07 1.72 mins</title></rect><rect width="4" height="4" x="37" y="35.9" fill="#abe6ad" rx="1" ry="1"><title>2024-02-08 11.52 mins</title></rect><rect width="4" height="4" x="37" y="41.3" fill="#549F57" rx="1" ry="1"><title>2024-02-09 80.67 mins</title></rect><rect width="4" height="4" x="37" y="46.7" fill="#ace7ae" rx="1" ry="1"><title>2024-02-10 3.2 mins</title></rect><rect width="4" height="4" x="37" y="52.1" fill="#aae6ac" rx="1" ry="1"><title>2024-02-11 14.55 mins</title></rect><rect width="4" height="4" x="42.4" y="19.7" fill="#abe7ad" rx="1" ry="1"><title>2024-02-12 7.58 mins</title></rect><rect width="4" height="4" x="42.4" y="25.1" fill="#ace7ae" rx="1" ry="1"><title>2024-02-13 3.33 mins</title></rect><rect width="4" height="4" x="42.4" y="30.5" fill="#abe7ad" rx="1" ry="1"><title>2024-02-14 7.3 mins</title></rect><rect width="4" height="4" x="42.4" y="35.9" fill="#ace7ae" rx="1" ry="1"><title>2024-02-15 1.85 mins</title></rect><rect width="4" height="4" x="42.4" y="41.3" fill="#abe7ad" rx="1" ry="1"><title>2024-02-16 6.23 mins</title></rect><rect width="4" height="4" x="42.4" y="46.7" fill="#abe7ad" rx="1" ry="1"><title>2024-02-17 6.62 mins</title></rect><rect width="4" height="4" x="42.4" y="52.1" fill="#ace7ae" rx="1" ry="1"><title>2024-02-18 0.87 mins</title></rect><rect width="4" height="4" x="47.8" y="19.7" fill="#68c06d" rx="1" ry="1"><title>2024-02-19 30.05 mins</title></rect><rect width="4" height="4" x="47.8" y="25.1" fill="#67bf6c" rx="1" ry="1"><title>2024-02-20 60.63 mins</title></rect><rect width="4" height="4" x="47.8" y="30.5" fill="#549F57" rx="1" ry="1"><title>2024-02-21 83.97 mins</title></rect><rect width="4" height="4" x="47.8" y="35.9" fill="#abe7ad" rx="1" ry="1"><title>2024-02-22 5.65 mins</title></rect><rect width="4" height="4" x="47.8" y="41.3" fill="#abe7ad" rx="1" ry="1"><title>2024-02-23 9.23 mins</title></rect><rect width="4" height="4" x="47.8" y="46.7" fill="#abe7ad" rx="1" ry="1"><title>2024-02-24 5.22 mins</title></rect><rect width="4" height="4" x="47.8" y="52.1" fill="#abe6ad" rx="1" ry="1"><title>2024-02-25 12.4 mins</title></rect><rect width="4" height="4" x="53.2" y="19.7" fill="#abe7ad" rx="1" ry="1"><title>2024-02-26 5.22 mins</title></rect><rect width="4" height="4" x="53.2" y="25.1" fill="#67bf6c" rx="1" ry="1"><title>2024-02-27 58.33 mins</title></rect><rect width="4" height="4" x="53.2" y="30.5" fill="#67bf6c" rx="1" ry="1"><title>2024-02-28 55.58 mins</title></rect><rect width="4" height="4" x="53.2" y="35.9" fill="#68c06d" rx="1" ry="1"><title>2024-02-29 45.75 mins</title></rect><rect width="4" height="4" x="53.2" y="41.3" fill="#549F57" rx="1" ry="1"><title>2024-03-01 83.27 mins</title></rect><rect width="4" height="4" x="53.2" y="46.7" fill="#abe6ad" rx="1" ry="1"><title>2024-03-02 10.6 mins</title></rect><rect width="4" height="4" x="53.2" y="52.1" fill="#68c06c" rx="1" ry="1"><title>2024-03-03 54.15 mins</title></rect><text fill="#000" style="font-size:2.5px;font-family:Arial" x="58.6" y="18.3">Mar</text><rect width="4" height="4" x="58.6" y="19.7" fill="#ace7ae" rx="1" ry="1"><title>2024-03-04 4.53 mins</title></rect><rect width="4" height="4" x="58.6" y="25.1" fill="#abe7ad" rx="1" ry="1"><title>2024-03-05 9.65 mins</title></rect><rect width="4" height="4" x="58.6" y="30.5" fill="#aae6ac" rx="1" ry="1"><title>2024-03-06 15.28 mins</title></rect><rect width="4" height="4" x="58.6" y="35.9" fill="#549F57" rx="1" ry="1"><title>2024-03-07 66.35 mins</title></rect><rect width="4" height="4" x="58.6" y="41.3" fill="#abe7ad" rx="1" ry="1"><title>2024-03-08 5.3 mins</title></rect><rect width="4" height="4" x="58.6" y="46.7" fill="#ace7ae" rx="1" ry="1"><title>2024-03-09 2.73 mins</title></rect><rect width="4" height="4" x="58.6" y="52.1" fill="#549F57" rx="1" ry="1"><title>2024-03-10 112.52 mins</title></rect><rect width="4" height="4" x="64" y="19.7" fill="#549F57" rx="1" ry="1"><title>2024-03-11 84.37 mins</title></rect><rect width="4" height="4" x="64" y="25.1" fill="#68c06d" rx="1" ry="1"><title>2024-03-12 42.88 mins</title></rect><rect width="4" height="4" x="64" y="30.5" fill="#68c06d" rx="1" ry="1"><title>2024-03-13 38.88 mins</title></rect><rect width="4" height="4" x="64" y="35.9" fill="#549F57" rx="1" ry="1"><title>2024-03-14 81.35 mins</title></rect><rect width="4" height="4" x="64" y="41.3" fill="#549F57" rx="1" ry="1"><title>2024-03-15 343.78 mins</title></rect><rect width="4" height="4" x="64" y="46.7" fill="#549F57" rx="1" ry="1"><title>2024-03-16 167.53 mins</title></rect><rect width="4" height="4" x="64" y="52.1" fill="#67bf6c" rx="1" ry="1"><title>2024-03-17 59.62 mins</title></rect><rect width="4" height="4" x="69.4" y="19.7" fill="#549F57" rx="1" ry="1"><title>2024-03-18 86.23 mins</title></rect><rect width="4" height="4" x="69.4" y="25.1" fill="#549F57" rx="1" ry="1"><title>2024-03-19 599.25 mins</title></rect><rect width="4" height="4" x="69.4" y="30.5" fill="#549F57" rx="1" ry="1"><title>2024-03-20 235.9 mins</title></rect><rect width="4" height="4" x="69.4" y="35.9" fill="#549F57" rx="1" ry="1"><title>2024-03-21 112.88 mins</title></rect><rect width="4" height="4" x="69.4" y="41.3" fill="#549F57" rx="1" ry="1"><title>2024-03-22 182.42 mins</title></rect><rect width="4" height="4" x="69.4" y="46.7" fill="#549F57" rx="1" ry="1"><title>2024-03-23 90.7 mins</title></rect><rect width="4" height="4" x="69.4" y="52.1" fill="#549F57" rx="1" ry="1"><title>2024-03-24 130.78 mins</title></rect><rect width="4" height="4" x="74.8" y="19.7" fill="#549F57" rx="1" ry="1"><title>2024-03-25 433.18 mins</title></rect><rect width="4" height="4" x="74.8" y="25.1" fill="#549F57" rx="1" ry="1"><title>2024-03-26 192.13 mins</title></rect><rect width="4" height="4" x="74.8" y="30.5" fill="#68c06d" rx="1" ry="1"><title>2024-03-27 50.58 mins</title></rect><rect width="4" height="4" x="74.8" y="35.9" fill="#549F57" rx="1" ry="1"><title>2024-03-28 108.92 mins</title></rect><rect width="4" height="4" x="74.8" y="41.3" fill="#549F57" rx="1" ry="1"><title>2024-03-29 362.37 mins</title></rect><rect width="4" height="4" x="74.8" y="46.7" fill="#549F57" rx="1" ry="1"><title>2024-03-30 776.17 mins</title></rect><rect width="4" height="4" x="74.8" y="52.1" fill="#549F57" rx="1" ry="1"><title>2024-03-31 1003.85 mins</title></rect><text fill="#000" style="font-size:2.5px;font-family:Arial" x="80.2" y="18.3">Apr</text><rect width="4" height="4" x="80.2" y="19.7" fill="#549F57" rx="1" ry="1"><title>2024-04-01 92.7 mins</title></rect><rect width="4" height="4" x="80.2" y="25.1" fill="#ace7ae" rx="1" ry="1"><title>2024-04-02 3.28 mins</title></rect><rect width="4" height="4" x="80.2" y="30.5" fill="#549F57" rx="1" ry="1"><title>2024-04-03 94.0 mins</title></rect><rect width="4" height="4" x="80.2" y="35.9" fill="#68c06d" rx="1" ry="1"><title>2024-04-04 42.57 mins</title></rect><rect width="4" height="4" x="80.2" y="41.3" fill="#549F57" rx="1" ry="1"><title>2024-04-05 248.57 mins</title></rect><rect width="4" height="4" x="80.2" y="46.7" fill="#549F57" rx="1" ry="1"><title>2024-04-06 287.4 mins</title></rect><rect width="4" height="4" x="80.2" y="52.1" fill="#549F57" rx="1" ry="1"><title>2024-04-07 208.0 mins</title></rect><rect width="4" height="4" x="85.6" y="19.7" fill="#68c06d" rx="1" ry="1"><title>2024-04-08 51.55 mins</title></rect><rect width="4" height="4" x="85.6" y="25.1" fill="#549F57" rx="1" ry="1"><title>2024-04-09 216.27 mins</title></rect><rect width="4" height="4" x="85.6" y="30.5" fill="#67bf6c" rx="1" ry="1"><title>2024-04-10 56.03 mins</title></rect><rect width="4" height="4" x="85.6" y="35.9" fill="#68c06d" rx="1" ry="1"><title>2024-04-11 48.02 mins</title></rect><rect width="4" height="4" x="85.6" y="41.3" fill="#68c06d" rx="1" ry="1"><title>2024-04-12 41.4 mins</title></rect><rect width="4" height="4" x="85.6" y="46.7" fill="#a9e6ab" rx="1" ry="1"><title>2024-04-13 23.87 mins</title></rect><rect width="4" height="4" x="85.6" y="52.1" fill="#abe7ad" rx="1" ry="1"><title>2024-04-14 5.35 mins</title></rect><rect width="4" height="4" x="91" y="19.7" fill="#549F57" rx="1" ry="1"><title>2024-04-15 88.47 mins</title></rect><rect width="4" height="4" x="91" y="25.1" fill="#aae6ac" rx="1" ry="1"><title>2024-04-16 16.07 mins</title></rect><rect width="4" height="4" x="91" y="30.5" fill="#aae6ac" rx="1" ry="1"><title>2024-04-17 17.15 mins</title></rect><rect width="4" height="4" x="91" y="35.9" fill="#abe6ad" rx="1" ry="1"><title>2024-04-18 11.4 mins</title></rect><rect width="4" height="4" x="91" y="41.3" fill="#549F57" rx="1" ry="1"><title>2024-04-19 165.1 mins</title></rect><rect width="4" height="4" x="91" y="46.7" fill="#abe6ad" rx="1" ry="1"><title>2024-04-20 10.85 mins</title></rect><rect width="4" height="4" x="91" y="52.1" fill="#abe6ad" rx="1" ry="1"><title>2024-04-21 13.37 mins</title></rect><rect width="4" height="4" x="96.4" y="19.7" fill="#68c06d" rx="1" ry="1"><title>2024-04-22 30.83 mins</title></rect><rect width="4" height="4" x="96.4" y="25.1" fill="#68c06d" rx="1" ry="1"><title>2024-04-23 40.57 mins</title></rect><rect width="4" height="4" x="96.4" y="30.5" fill="#549F57" rx="1" ry="1"><title>2024-04-24 66.25 mins</title></rect><rect width="4" height="4" x="96.4" y="35.9" fill="#67bf6c" rx="1" ry="1"><title>2024-04-25 56.45 mins</title></rect><rect width="4" height="4" x="96.4" y="41.3" fill="#68c06d" rx="1" ry="1"><title>2024-04-26 42.25 mins</title></rect><rect width="4" height="4" x="96.4" y="46.7" fill="#abe7ad" rx="1" ry="1"><title>2024-04-27 7.17 mins</title></rect><rect width="4" height="4" x="96.4" y="52.1" fill="#549F57" rx="1" ry="1"><title>2024-04-28 71.63 mins</title></rect><rect width="4" height="4" x="101.8" y="19.7" fill="#abe7ad" rx="1" ry="1"><title>2024-04-29 9.5 mins</title></rect><rect width="4" height="4" x="101.8" y="25.1" fill="#68c06d" rx="1" ry="1"><title>2024-04-30 31.38 mins</title></rect><rect width="4" height="4" x="101.8" y="30.5" fill="#a9e6ab" rx="1" ry="1"><title>2024-05-01 25.05 mins</title></rect><rect width="4" height="4" x="101.8" y="35.9" fill="#abe6ad" rx="1" ry="1"><title>2024-05-02 13.25 mins</title></rect><rect width="4" height="4" x="101.8" y="41.3" fill="#549F57" rx="1" ry="1"><title>2024-05-03 362.23 mins</title></rect><rect width="4" height="4" x="101.8" y="46.7" fill="#abe7ad" rx="1" ry="1"><title>2024-05-04 6.33 mins</title></rect><rect width="4" height="4" x="101.8" y="52.1" fill="#abe7ad" rx="1" ry="1"><title>2024-05-05 5.32 mins</title></rect><text fill="#000" style="font-size:2.5px;font-family:Arial" x="107.2" y="18.3">May</text><rect width="4" height="4" x="107.2" y="19.7" fill="#549F57" rx="1" ry="1"><title>2024-05-06 75.45 mins</title></rect><rect width="4" height="4" x="107.2" y="25.1" fill="#549F57" rx="1" ry="1"><title>2024-05-07 67.95 mins</title></rect><rect width="4" height="4" x="107.2" y="30.5" fill="#aae6ac" rx="1" ry="1"><title>2024-05-08 16.22 mins</title></rect><rect width="4" height="4" x="107.2" y="35.9" fill="#549F57" rx="1" ry="1"><title>2024-05-09 142.63 mins</title></rect><rect width="4" height="4" x="107.2" y="41.3" fill="#aae6ac" rx="1" ry="1"><title>2024-05-10 22.18 mins</title></rect><rect width="4" height="4" x="107.2" y="46.7" fill="#549F57" rx="1" ry="1"><title>2024-05-11 99.47 mins</title></rect><rect width="4" height="4" x="107.2" y="52.1" fill="#549F57" rx="1" ry="1"><title>2024-05-12 114.58 mins</title></rect><rect width="4" height="4" x="112.6" y="19.7" fill="#549F57" rx="1" ry="1"><title>2024-05-13 189.2 mins</title></rect><rect width="4" height="4" x="112.6" y="25.1" fill="#a9e6ab" rx="1" ry="1"><title>2024-05-14 25.88 mins</title></rect><rect width="4" height="4" x="112.6" y="30.5" fill="#68c06c" rx="1" ry="1"><title>2024-05-15 53.08 mins</title></rect><rect width="4" height="4" x="112.6" y="35.9" fill="#549F57" rx="1" ry="1"><title>2024-05-16 79.85 mins</title></rect><rect width="4" height="4" x="112.6" y="41.3" fill="#549F57" rx="1" ry="1"><title>2024-05-17 137.78 mins</title></rect><rect width="4" height="4" x="112.6" y="46.7" fill="#aae6ac" rx="1" ry="1"><title>2024-05-18 18.0 mins</title></rect><rect width="4" height="4" x="112.6" y="52.1" fill="#aae6ac" rx="1" ry="1"><title>2024-05-19 20.48 mins</title></rect><rect width="4" height="4" x="118" y="19.7" fill="#abe6ad" rx="1" ry="1"><title>2024-05-20 11.37 mins</title></rect><rect width="4" height="4" x="118" y="25.1" fill="#aae6ac" rx="1" ry="1"><title>2024-05-21 18.27 mins</title></rect><rect width="4" height="4" x="118" y="30.5" fill="#abe7ad" rx="1" ry="1"><title>2024-05-22 8.65 mins</title></rect><rect width="4" height="4" x="118" y="35.9" fill="#a9e6ab" rx="1" ry="1"><title>2024-05-23 27.3 mins</title></rect><rect width="4" height="4" x="118" y="41.3" fill="#549F57" rx="1" ry="1"><title>2024-05-24 134.7 mins</title></rect><rect width="4" height="4" x="118" y="46.7" fill="#aae6ac" rx="1" ry="1"><title>2024-05-25 18.95 mins</title></rect><rect width="4" height="4" x="118" y="52.1" fill="#549F57" rx="1" ry="1"><title>2024-05-26 207.17 mins</title></rect><rect width="4" height="4" x="123.4" y="19.7" fill="#abe6ad" rx="1" ry="1"><title>2024-05-27 12.47 mins</title></rect><rect width="4" height="4" x="123.4" y="25.1" fill="#549F57" rx="1" ry="1"><title>2024-05-28 90.22 mins</title></rect><rect width="4" height="4" x="123.4" y="30.5" fill="#abe7ad" rx="1" ry="1"><title>2024-05-29 4.87 mins</title></rect><rect width="4" height="4" x="123.4" y="35.9" fill="#549F57" rx="1" ry="1"><title>2024-05-30 70.88 mins</title></rect><rect width="4" height="4" x="123.4" y="41.3" fill="#a9e6ab" rx="1" ry="1"><title>2024-05-31 26.07 mins</title></rect><rect width="4" height="4" x="123.4" y="46.7" fill="#68c06d" rx="1" ry="1"><title>2024-06-01 46.93 mins</title></rect><rect width="4" height="4" x="123.4" y="52.1" fill="#549F57" rx="1" ry="1"><title>2024-06-02 98.35 mins</title></rect><text fill="#000" style="font-size:2.5px;font-family:Arial" x="128.8" y="18.3">Jun</text><rect width="4" height="4" x="128.8" y="19.7" fill="#67bf6c" rx="1" ry="1"><title>2024-06-03 56.85 mins</title></rect><rect width="4" height="4" x="128.8" y="25.1" fill="#a9e6ab" rx="1" ry="1"><title>2024-06-04 25.23 mins</title></rect><rect width="4" height="4" x="128.8" y="30.5" fill="#68c06d" rx="1" ry="1"><title>2024-06-05 34.78 mins</title></rect><rect width="4" height="4" x="128.8" y="35.9" fill="#549F57" rx="1" ry="1"><title>2024-06-06 95.13 mins</title></rect><rect width="4" height="4" x="128.8" y="41.3" fill="#549F57" rx="1" ry="1"><title>2024-06-07 66.08 mins</title></rect><rect width="4" height="4" x="128.8" y="46.7" fill="#abe7ad" rx="1" ry="1"><title>2024-06-08 7.67 mins</title></rect><rect width="4" height="4" x="128.8" y="52.1" fill="#68c06d" rx="1" ry="1"><title>2024-06-09 32.1 mins</title></rect><rect width="4" height="4" x="134.2" y="19.7" fill="#abe6ad" rx="1" ry="1"><title>2024-06-10 11.95 mins</title></rect><rect width="4" height="4" x="134.2" y="25.1" fill="#68c06d" rx="1" ry="1"><title>2024-06-11 29.73 mins</title></rect><rect width="4" height="4" x="134.2" y="30.5" fill="#549F57" rx="1" ry="1"><title>2024-06-12 391.7 mins</title></rect><rect width="4" height="4" x="134.2" y="35.9" fill="#549F57" rx="1" ry="1"><title>2024-06-13 63.48 mins</title></rect><rect width="4" height="4" x="134.2" y="41.3" fill="#549F57" rx="1" ry="1"><title>2024-06-14 102.28 mins</title></rect><rect width="4" height="4" x="134.2" y="46.7" fill="#68c06d" rx="1" ry="1"><title>2024-06-15 40.07 mins</title></rect><rect width="4" height="4" x="134.2" y="52.1" fill="#abe7ad" rx="1" ry="1"><title>2024-06-16 7.57 mins</title></rect><rect width="4" height="4" x="139.6" y="19.7" fill="#68c06d" rx="1" ry="1"><title>2024-06-17 51.95 mins</title></rect><rect width="4" height="4" x="139.6" y="25.1" fill="#68c06d" rx="1" ry="1"><title>2024-06-18 28.97 mins</title></rect><rect width="4" height="4" x="139.6" y="30.5" fill="#549F57" rx="1" ry="1"><title>2024-06-19 87.47 mins</title></rect><rect width="4" height="4" x="139.6" y="35.9" fill="#aae6ac" rx="1" ry="1"><title>2024-06-20 20.15 mins</title></rect><rect width="4" height="4" x="139.6" y="41.3" fill="#68c06d" rx="1" ry="1"><title>2024-06-21 32.47 mins</title></rect><rect width="4" height="4" x="139.6" y="46.7" fill="#a9e6ac" rx="1" ry="1"><title>2024-06-22 23.2 mins</title></rect><rect width="4" height="4" x="139.6" y="52.1" fill="#abe7ad" rx="1" ry="1"><title>2024-06-23 7.38 mins</title></rect><rect width="4" height="4" x="145" y="19.7" fill="#68c06d" rx="1" ry="1"><title>2024-06-24 43.92 mins</title></rect><rect width="4" height="4" x="145" y="25.1" fill="#549F57" rx="1" ry="1"><title>2024-06-25 77.62 mins</title></rect><rect width="4" height="4" x="145" y="30.5" fill="#549F57" rx="1" ry="1"><title>2024-06-26 221.67 mins</title></rect><rect width="4" height="4" x="145" y="35.9" fill="#549F57" rx="1" ry="1"><title>2024-06-27 112.12 mins</title></rect><rect width="4" height="4" x="145" y="41.3" fill="#67bf6c" rx="1" ry="1"><title>2024-06-28 57.12 mins</title></rect><rect width="4" height="4" x="145" y="46.7" fill="#549F57" rx="1" ry="1"><title>2024-06-29 64.53 mins</title></rect><rect width="4" height="4" x="145" y="52.1" fill="#68c06d" rx="1" ry="1"><title>2024-06-30 30.42 mins</title></rect><text fill="#000" style="font-size:2.5px;font-family:Arial" x="150.4" y="18.3">Jul</text><rect width="4" height="4" x="150.4" y="19.7" fill="#549F57" rx="1" ry="1"><title>2024-07-01 103.92 mins</title></rect><rect width="4" height="4" x="150.4" y="25.1" fill="#a9e6ab" rx="1" ry="1"><title>2024-07-02 27.98 mins</title></rect><rect width="4" height="4" x="150.4" y="30.5" fill="#aae6ac" rx="1" ry="1"><title>2024-07-03 16.78 mins</title></rect><rect width="4" height="4" x="150.4" y="35.9" fill="#abe7ad" rx="1" ry="1"><title>2024-07-04 9.22 mins</title></rect><rect width="4" height="4" x="150.4" y="41.3" fill="#549F57" rx="1" ry="1"><title>2024-07-05 107.62 mins</title></rect><rect width="4" height="4" x="150.4" y="46.7" fill="#aae6ac" rx="1" ry="1"><title>2024-07-06 21.62 mins</title></rect><rect width="4" height="4" x="150.4" y="52.1" fill="#68c06d" rx="1" ry="1"><title>2024-07-07 50.48 mins</title></rect><rect width="4" height="4" x="155.8" y="19.7" fill="#68c06d" rx="1" ry="1"><title>2024-07-08 34.42 mins</title></rect><rect width="4" height="4" x="155.8" y="25.1" fill="#549F57" rx="1" ry="1"><title>2024-07-09 73.03 mins</title></rect><rect width="4" height="4" x="155.8" y="30.5" fill="#549F57" rx="1" ry="1"><title>2024-07-10 174.63 mins</title></rect><rect width="4" height="4" x="155.8" y="35.9" fill="#68c06d" rx="1" ry="1"><title>2024-07-11 29.47 mins</title></rect><rect width="4" height="4" x="155.8" y="41.3" fill="#abe7ad" rx="1" ry="1"><title>2024-07-12 5.15 mins</title></rect><rect width="4" height="4" x="155.8" y="46.7" fill="#abe7ad" rx="1" ry="1"><title>2024-07-13 6.13 mins</title></rect><rect width="4" height="4" x="155.8" y="52.1" fill="#aae6ac" rx="1" ry="1"><title>2024-07-14 20.27 mins</title></rect><rect width="4" height="4" x="161.2" y="19.7" fill="#aae6ac" rx="1" ry="1"><title>2024-07-15 15.6 mins</title></rect><rect width="4" height="4" x="161.2" y="25.1" fill="#abe6ad" rx="1" ry="1"><title>2024-07-16 11.77 mins</title></rect><rect width="4" height="4" x="161.2" y="30.5" fill="#549F57" rx="1" ry="1"><title>2024-07-17 64.37 mins</title></rect><rect width="4" height="4" x="161.2" y="35.9" fill="#68c06d" rx="1" ry="1"><title>2024-07-18 41.57 mins</title></rect><rect width="4" height="4" x="161.2" y="41.3" fill="#549F57" rx="1" ry="1"><title>2024-07-19 93.17 mins</title></rect><rect width="4" height="4" x="161.2" y="46.7" fill="#aae6ac" rx="1" ry="1"><title>2024-07-20 17.13 mins</title></rect><rect width="4" height="4" x="161.2" y="52.1" fill="#abe7ad" rx="1" ry="1"><title>2024-07-21 8.55 mins</title></rect><rect width="4" height="4" x="166.6" y="19.7" fill="#abe7ad" rx="1" ry="1"><title>2024-07-22 8.37 mins</title></rect><rect width="4" height="4" x="166.6" y="25.1" fill="#549F57" rx="1" ry="1"><title>2024-07-23 214.85 mins</title></rect><rect width="4" height="4" x="166.6" y="30.5" fill="#549F57" rx="1" ry="1"><title>2024-07-24 97.87 mins</title></rect><rect width="4" height="4" x="166.6" y="35.9" fill="#68c06d" rx="1" ry="1"><title>2024-07-25 49.72 mins</title></rect><rect width="4" height="4" x="166.6" y="41.3" fill="#67bf6c" rx="1" ry="1"><title>2024-07-26 55.4 mins</title></rect><rect width="4" height="4" x="166.6" y="46.7" fill="#549F57" rx="1" ry="1"><title>2024-07-27 86.4 mins</title></rect><rect width="4" height="4" x="166.6" y="52.1" fill="#549F57" rx="1" ry="1"><title>2024-07-28 76.33 mins</title></rect><rect width="4" height="4" x="172" y="19.7" fill="#68c06d" rx="1" ry="1"><title>2024-07-29 38.78 mins</title></rect><rect width="4" height="4" x="172" y="25.1" fill="#549F57" rx="1" ry="1"><title>2024-07-30 147.47 mins</title></rect><rect width="4" height="4" x="172" y="30.5" fill="#a9e6ab" rx="1" ry="1"><title>2024-07-31 23.23 mins</title></rect><rect width="4" height="4" x="172" y="35.9" fill="#abe7ad" rx="1" ry="1"><title>2024-08-01 5.77 mins</title></rect><rect width="4" height="4" x="172" y="41.3" fill="#ace7ae" rx="1" ry="1"><title>2024-08-02 3.83 mins</title></rect><rect width="4" height="4" x="172" y="46.7" fill="#549F57" rx="1" ry="1"><title>2024-08-03 83.12 mins</title></rect><rect width="4" height="4" x="172" y="52.1" fill="#EBEDF0" rx="1" ry="1"><title>2024-08-04</title></rect><text fill="#000" style="font-size:2.5px;font-family:Arial" x="177.4" y="18.3">Aug</text><rect width="4" height="4" x="177.4" y="19.7" fill="#EBEDF0" rx="1" ry="1"><title>2024-08-05</title></rect><rect width="4" height="4" x="177.4" y="25.1" fill="#EBEDF0" rx="1" ry="1"><title>2024-08-06</title></rect><rect width="4" height="4" x="177.4" y="30.5" fill="#EBEDF0" rx="1" ry="1"><title>2024-08-07</title></rect><rect width="4" height="4" x="177.4" y="35.9" fill="#EBEDF0" rx="1" ry="1"><title>2024-08-08</title></rect><rect width="4" height="4" x="177.4" y="41.3" fill="#EBEDF0" rx="1" ry="1"><title>2024-08-09</title></rect><rect width="4" height="4" x="177.4" y="46.7" fill="#EBEDF0" rx="1" ry="1"><title>2024-08-10</title></rect><rect width="4" height="4" x="177.4" y="52.1" fill="#EBEDF0" rx="1" ry="1"><title>2024-08-11</title></rect><rect width="4" height="4" x="182.8" y="19.7" fill="#EBEDF0" rx="1" ry="1"><title>2024-08-12</title></rect><rect width="4" height="4" x="182.8" y="25.1" fill="#EBEDF0" rx="1" ry="1"><title>2024-08-13</title></rect><rect width="4" height="4" x="182.8" y="30.5" fill="#EBEDF0" rx="1" ry="1"><title>2024-08-14</title></rect><rect width="4" height="4" x="182.8" y="35.9" fill="#EBEDF0" rx="1" ry="1"><title>2024-08-15</title></rect><rect width="4" height="4" x="182.8" y="41.3" fill="#EBEDF0" rx="1" ry="1"><title>2024-08-16</title></rect><rect width="4" height="4" x="182.8" y="46.7" fill="#EBEDF0" rx="1" ry="1"><title>2024-08-17</title></rect><rect width="4" height="4" x="182.8" y="52.1" fill="#EBEDF0" rx="1" ry="1"><title>2024-08-18</title></rect><rect width="4" height="4" x="188.2" y="19.7" fill="#EBEDF0" rx="1" ry="1"><title>2024-08-19</title></rect><rect width="4" height="4" x="188.2" y="25.1" fill="#EBEDF0" rx="1" ry="1"><title>2024-08-20</title></rect><rect width="4" height="4" x="188.2" y="30.5" fill="#EBEDF0" rx="1" ry="1"><title>2024-08-21</title></rect><rect width="4" height="4" x="188.2" y="35.9" fill="#EBEDF0" rx="1" ry="1"><title>2024-08-22</title></rect><rect width="4" height="4" x="188.2" y="41.3" fill="#EBEDF0" rx="1" ry="1"><title>2024-08-23</title></rect><rect width="4" height="4" x="188.2" y="46.7" fill="#EBEDF0" rx="1" ry="1"><title>2024-08-24</title></rect><rect width="4" height="4" x="188.2" y="52.1" fill="#EBEDF0" rx="1" ry="1"><title>2024-08-25</title></rect><rect width="4" height="4" x="193.6" y="19.7" fill="#EBEDF0" rx="1" ry="1"><title>2024-08-26</title></rect><rect width="4" height="4" x="193.6" y="25.1" fill="#EBEDF0" rx="1" ry="1"><title>2024-08-27</title></rect><rect width="4" height="4" x="193.6" y="30.5" fill="#EBEDF0" rx="1" ry="1"><title>2024-08-28</title></rect><rect width="4" height="4" x="193.6" y="35.9" fill="#EBEDF0" rx="1" ry="1"><title>2024-08-29</title></rect><rect width="4" height="4" x="193.6" y="41.3" fill="#EBEDF0" rx="1" ry="1"><title>2024-08-30</title></rect><rect width="4" height="4" x="193.6" y="46.7" fill="#EBEDF0" rx="1" ry="1"><title>2024-08-31</title></rect><rect width="4" height="4" x="193.6" y="52.1" fill="#EBEDF0" rx="1" ry="1"><title>2024-09-01</title></rect><text fill="#000" style="font-size:2.5px;font-family:Arial" x="199" y="18.3">Sep</text><rect width="4" height="4" x="199" y="19.7" fill="#EBEDF0" rx="1" ry="1"><title>2024-09-02</title></rect><rect width="4" height="4" x="199" y="25.1" fill="#EBEDF0" rx="1" ry="1"><title>2024-09-03</title></rect><rect width="4" height="4" x="199" y="30.5" fill="#EBEDF0" rx="1" ry="1"><title>2024-09-04</title></rect><rect width="4" height="4" x="199" y="35.9" fill="#EBEDF0" rx="1" ry="1"><title>2024-09-05</title></rect><rect width="4" height="4" x="199" y="41.3" fill="#EBEDF0" rx="1" ry="1"><title>2024-09-06</title></rect><rect width="4" height="4" x="199" y="46.7" fill="#EBEDF0" rx="1" ry="1"><title>2024-09-07</title></rect><rect width="4" height="4" x="199" y="52.1" fill="#EBEDF0" rx="1" ry="1"><title>2024-09-08</title></rect><rect width="4" height="4" x="204.4" y="19.7" fill="#EBEDF0" rx="1" ry="1"><title>2024-09-09</title></rect><rect width="4" height="4" x="204.4" y="25.1" fill="#EBEDF0" rx="1" ry="1"><title>2024-09-10</title></rect><rect width="4" height="4" x="204.4" y="30.5" fill="#EBEDF0" rx="1" ry="1"><title>2024-09-11</title></rect><rect width="4" height="4" x="204.4" y="35.9" fill="#EBEDF0" rx="1" ry="1"><title>2024-09-12</title></rect><rect width="4" height="4" x="204.4" y="41.3" fill="#EBEDF0" rx="1" ry="1"><title>2024-09-13</title></rect><rect width="4" height="4" x="204.4" y="46.7" fill="#EBEDF0" rx="1" ry="1"><title>2024-09-14</title></rect><rect width="4" height="4" x="204.4" y="52.1" fill="#EBEDF0" rx="1" ry="1"><title>2024-09-15</title></rect><rect width="4" height="4" x="209.8" y="19.7" fill="#EBEDF0" rx="1" ry="1"><title>2024-09-16</title></rect><rect width="4" height="4" x="209.8" y="25.1" fill="#EBEDF0" rx="1" ry="1"><title>2024-09-17</title></rect><rect width="4" height="4" x="209.8" y="30.5" fill="#EBEDF0" rx="1" ry="1"><title>2024-09-18</title></rect><rect width="4" height="4" x="209.8" y="35.9" fill="#EBEDF0" rx="1" ry="1"><title>2024-09-19</title></rect><rect width="4" height="4" x="209.8" y="41.3" fill="#EBEDF0" rx="1" ry="1"><title>2024-09-20</title></rect><rect width="4" height="4" x="209.8" y="46.7" fill="#EBEDF0" rx="1" ry="1"><title>2024-09-21</title></rect><rect width="4" height="4" x="209.8" y="52.1" fill="#EBEDF0" rx="1" ry="1"><title>2024-09-22</title></rect><rect width="4" height="4" x="215.2" y="19.7" fill="#EBEDF0" rx="1" ry="1"><title>2024-09-23</title></rect><rect width="4" height="4" x="215.2" y="25.1" fill="#EBEDF0" rx="1" ry="1"><title>2024-09-24</title></rect><rect width="4" height="4" x="215.2" y="30.5" fill="#EBEDF0" rx="1" ry="1"><title>2024-09-25</title></rect><rect width="4" height="4" x="215.2" y="35.9" fill="#EBEDF0" rx="1" ry="1"><title>2024-09-26</title></rect><rect width="4" height="4" x="215.2" y="41.3" fill="#EBEDF0" rx="1" ry="1"><title>2024-09-27</title></rect><rect width="4" height="4" x="215.2" y="46.7" fill="#EBEDF0" rx="1" ry="1"><title>2024-09-28</title></rect><rect width="4" height="4" x="215.2" y="52.1" fill="#EBEDF0" rx="1" ry="1"><title>2024-09-29</title></rect><rect width="4" height="4" x="220.6" y="19.7" fill="#EBEDF0" rx="1" ry="1"><title>2024-09-30</title></rect><rect width="4" height="4" x="220.6" y="25.1" fill="#EBEDF0" rx="1" ry="1"><title>2024-10-01</title></rect><rect width="4" height="4" x="220.6" y="30.5" fill="#EBEDF0" rx="1" ry="1"><title>2024-10-02</title></rect><rect width="4" height="4" x="220.6" y="35.9" fill="#EBEDF0" rx="1" ry="1"><title>2024-10-03</title></rect><rect width="4" height="4" x="220.6" y="41.3" fill="#EBEDF0" rx="1" ry="1"><title>2024-10-04</title></rect><rect width="4" height="4" x="220.6" y="46.7" fill="#EBEDF0" rx="1" ry="1"><title>2024-10-05</title></rect><rect width="4" height="4" x="220.6" y="52.1" fill="#EBEDF0" rx="1" ry="1"><title>2024-10-06</title></rect><text fill="#000" style="font-size:2.5px;font-family:Arial" x="226" y="18.3">Oct</text><rect width="4" height="4" x="226" y="19.7" fill="#EBEDF0" rx="1" ry="1"><title>2024-10-07</title></rect><rect width="4" height="4" x="226" y="25.1" fill="#EBEDF0" rx="1" ry="1"><title>2024-10-08</title></rect><rect width="4" height="4" x="226" y="30.5" fill="#EBEDF0" rx="1" ry="1"><title>2024-10-09</title></rect><rect width="4" height="4" x="226" y="35.9" fill="#EBEDF0" rx="1" ry="1"><title>2024-10-10</title></rect><rect width="4" height="4" x="226" y="41.3" fill="#EBEDF0" rx="1" ry="1"><title>2024-10-11</title></rect><rect width="4" height="4" x="226" y="46.7" fill="#EBEDF0" rx="1" ry="1"><title>2024-10-12</title></rect><rect width="4" height="4" x="226" y="52.1" fill="#EBEDF0" rx="1" ry="1"><title>2024-10-13</title></rect><rect width="4" height="4" x="231.4" y="19.7" fill="#EBEDF0" rx="1" ry="1"><title>2024-10-14</title></rect><rect width="4" height="4" x="231.4" y="25.1" fill="#EBEDF0" rx="1" ry="1"><title>2024-10-15</title></rect><rect width="4" height="4" x="231.4" y="30.5" fill="#EBEDF0" rx="1" ry="1"><title>2024-10-16</title></rect><rect width="4" height="4" x="231.4" y="35.9" fill="#EBEDF0" rx="1" ry="1"><title>2024-10-17</title></rect><rect width="4" height="4" x="231.4" y="41.3" fill="#EBEDF0" rx="1" ry="1"><title>2024-10-18</title></rect><rect width="4" height="4" x="231.4" y="46.7" fill="#EBEDF0" rx="1" ry="1"><title>2024-10-19</title></rect><rect width="4" height="4" x="231.4" y="52.1" fill="#EBEDF0" rx="1" ry="1"><title>2024-10-20</title></rect><rect width="4" height="4" x="236.8" y="19.7" fill="#EBEDF0" rx="1" ry="1"><title>2024-10-21</title></rect><rect width="4" height="4" x="236.8" y="25.1" fill="#EBEDF0" rx="1" ry="1"><title>2024-10-22</title></rect><rect width="4" height="4" x="236.8" y="30.5" fill="#EBEDF0" rx="1" ry="1"><title>2024-10-23</title></rect><rect width="4" height="4" x="236.8" y="35.9" fill="#EBEDF0" rx="1" ry="1"><title>2024-10-24</title></rect><rect width="4" height="4" x="236.8" y="41.3" fill="#EBEDF0" rx="1" ry="1"><title>2024-10-25</title></rect><rect width="4" height="4" x="236.8" y="46.7" fill="#EBEDF0" rx="1" ry="1"><title>2024-10-26</title></rect><rect width="4" height="4" x="236.8" y="52.1" fill="#EBEDF0" rx="1" ry="1"><title>2024-10-27</title></rect><rect width="4" height="4" x="242.2" y="19.7" fill="#EBEDF0" rx="1" ry="1"><title>2024-10-28</title></rect><rect width="4" height="4" x="242.2" y="25.1" fill="#EBEDF0" rx="1" ry="1"><title>2024-10-29</title></rect><rect width="4" height="4" x="242.2" y="30.5" fill="#EBEDF0" rx="1" ry="1"><title>2024-10-30</title></rect><rect width="4" height="4" x="242.2" y="35.9" fill="#EBEDF0" rx="1" ry="1"><title>2024-10-31</title></rect><rect width="4" height="4" x="242.2" y="41.3" fill="#EBEDF0" rx="1" ry="1"><title>2024-11-01</title></rect><rect width="4" height="4" x="242.2" y="46.7" fill="#EBEDF0" rx="1" ry="1"><title>2024-11-02</title></rect><rect width="4" height="4" x="242.2" y="52.1" fill="#EBEDF0" rx="1" ry="1"><title>2024-11-03</title></rect><text fill="#000" style="font-size:2.5px;font-family:Arial" x="247.6" y="18.3">Nov</text><rect width="4" height="4" x="247.6" y="19.7" fill="#EBEDF0" rx="1" ry="1"><title>2024-11-04</title></rect><rect width="4" height="4" x="247.6" y="25.1" fill="#EBEDF0" rx="1" ry="1"><title>2024-11-05</title></rect><rect width="4" height="4" x="247.6" y="30.5" fill="#EBEDF0" rx="1" ry="1"><title>2024-11-06</title></rect><rect width="4" height="4" x="247.6" y="35.9" fill="#EBEDF0" rx="1" ry="1"><title>2024-11-07</title></rect><rect width="4" height="4" x="247.6" y="41.3" fill="#EBEDF0" rx="1" ry="1"><title>2024-11-08</title></rect><rect width="4" height="4" x="247.6" y="46.7" fill="#EBEDF0" rx="1" ry="1"><title>2024-11-09</title></rect><rect width="4" height="4" x="247.6" y="52.1" fill="#EBEDF0" rx="1" ry="1"><title>2024-11-10</title></rect><rect width="4" height="4" x="253" y="19.7" fill="#EBEDF0" rx="1" ry="1"><title>2024-11-11</title></rect><rect width="4" height="4" x="253" y="25.1" fill="#EBEDF0" rx="1" ry="1"><title>2024-11-12</title></rect><rect width="4" height="4" x="253" y="30.5" fill="#EBEDF0" rx="1" ry="1"><title>2024-11-13</title></rect><rect width="4" height="4" x="253" y="35.9" fill="#EBEDF0" rx="1" ry="1"><title>2024-11-14</title></rect><rect width="4" height="4" x="253" y="41.3" fill="#EBEDF0" rx="1" ry="1"><title>2024-11-15</title></rect><rect width="4" height="4" x="253" y="46.7" fill="#EBEDF0" rx="1" ry="1"><title>2024-11-16</title></rect><rect width="4" height="4" x="253" y="52.1" fill="#EBEDF0" rx="1" ry="1"><title>2024-11-17</title></rect><rect width="4" height="4" x="258.4" y="19.7" fill="#EBEDF0" rx="1" ry="1"><title>2024-11-18</title></rect><rect width="4" height="4" x="258.4" y="25.1" fill="#EBEDF0" rx="1" ry="1"><title>2024-11-19</title></rect><rect width="4" height="4" x="258.4" y="30.5" fill="#EBEDF0" rx="1" ry="1"><title>2024-11-20</title></rect><rect width="4" height="4" x="258.4" y="35.9" fill="#EBEDF0" rx="1" ry="1"><title>2024-11-21</title></rect><rect width="4" height="4" x="258.4" y="41.3" fill="#EBEDF0" rx="1" ry="1"><title>2024-11-22</title></rect><rect width="4" height="4" x="258.4" y="46.7" fill="#EBEDF0" rx="1" ry="1"><title>2024-11-23</title></rect><rect width="4" height="4" x="258.4" y="52.1" fill="#EBEDF0" rx="1" ry="1"><title>2024-11-24</title></rect><rect width="4" height="4" x="263.8" y="19.7" fill="#EBEDF0" rx="1" ry="1"><title>2024-11-25</title></rect><rect width="4" height="4" x="263.8" y="25.1" fill="#EBEDF0" rx="1" ry="1"><title>2024-11-26</title></rect><rect width="4" height="4" x="263.8" y="30.5" fill="#EBEDF0" rx="1" ry="1"><title>2024-11-27</title></rect><rect width="4" height="4" x="263.8" y="35.9" fill="#EBEDF0" rx="1" ry="1"><title>2024-11-28</title></rect><rect width="4" height="4" x="263.8" y="41.3" fill="#EBEDF0" rx="1" ry="1"><title>2024-11-29</title></rect><rect width="4" height="4" x="263.8" y="46.7" fill="#EBEDF0" rx="1" ry="1"><title>2024-11-30</title></rect><rect width="4" height="4" x="263.8" y="52.1" fill="#EBEDF0" rx="1" ry="1"><title>2024-12-01</title></rect><text fill="#000" style="font-size:2.5px;font-family:Arial" x="269.2" y="18.3">Dec</text><rect width="4" height="4" x="269.2" y="19.7" fill="#EBEDF0" rx="1" ry="1"><title>2024-12-02</title></rect><rect width="4" height="4" x="269.2" y="25.1" fill="#EBEDF0" rx="1" ry="1"><title>2024-12-03</title></rect><rect width="4" height="4" x="269.2" y="30.5" fill="#EBEDF0" rx="1" ry="1"><title>2024-12-04</title></rect><rect width="4" height="4" x="269.2" y="35.9" fill="#EBEDF0" rx="1" ry="1"><title>2024-12-05</title></rect><rect width="4" height="4" x="269.2" y="41.3" fill="#EBEDF0" rx="1" ry="1"><title>2024-12-06</title></rect><rect width="4" height="4" x="269.2" y="46.7" fill="#EBEDF0" rx="1" ry="1"><title>2024-12-07</title></rect><rect width="4" height="4" x="269.2" y="52.1" fill="#EBEDF0" rx="1" ry="1"><title>2024-12-08</title></rect><rect width="4" height="4" x="274.6" y="19.7" fill="#EBEDF0" rx="1" ry="1"><title>2024-12-09</title></rect><rect width="4" height="4" x="274.6" y="25.1" fill="#EBEDF0" rx="1" ry="1"><title>2024-12-10</title></rect><rect width="4" height="4" x="274.6" y="30.5" fill="#EBEDF0" rx="1" ry="1"><title>2024-12-11</title></rect><rect width="4" height="4" x="274.6" y="35.9" fill="#EBEDF0" rx="1" ry="1"><title>2024-12-12</title></rect><rect width="4" height="4" x="274.6" y="41.3" fill="#EBEDF0" rx="1" ry="1"><title>2024-12-13</title></rect><rect width="4" height="4" x="274.6" y="46.7" fill="#EBEDF0" rx="1" ry="1"><title>2024-12-14</title></rect><rect width="4" height="4" x="274.6" y="52.1" fill="#EBEDF0" rx="1" ry="1"><title>2024-12-15</title></rect><rect width="4" height="4" x="280" y="19.7" fill="#EBEDF0" rx="1" ry="1"><title>2024-12-16</title></rect><rect width="4" height="4" x="280" y="25.1" fill="#EBEDF0" rx="1" ry="1"><title>2024-12-17</title></rect><rect width="4" height="4" x="280" y="30.5" fill="#EBEDF0" rx="1" ry="1"><title>2024-12-18</title></rect><rect width="4" height="4" x="280" y="35.9" fill="#EBEDF0" rx="1" ry="1"><title>2024-12-19</title></rect><rect width="4" height="4" x="280" y="41.3" fill="#EBEDF0" rx="1" ry="1"><title>2024-12-20</title></rect><rect width="4" height="4" x="280" y="46.7" fill="#EBEDF0" rx="1" ry="1"><title>2024-12-21</title></rect><rect width="4" height="4" x="280" y="52.1" fill="#EBEDF0" rx="1" ry="1"><title>2024-12-22</title></rect><rect width="4" height="4" x="285.4" y="19.7" fill="#EBEDF0" rx="1" ry="1"><title>2024-12-23</title></rect><rect width="4" height="4" x="285.4" y="25.1" fill="#EBEDF0" rx="1" ry="1"><title>2024-12-24</title></rect><rect width="4" height="4" x="285.4" y="30.5" fill="#EBEDF0" rx="1" ry="1"><title>2024-12-25</title></rect><rect width="4" height="4" x="285.4" y="35.9" fill="#EBEDF0" rx="1" ry="1"><title>2024-12-26</title></rect><rect width="4" height="4" x="285.4" y="41.3" fill="#EBEDF0" rx="1" ry="1"><title>2024-12-27</title></rect><rect width="4" height="4" x="285.4" y="46.7" fill="#EBEDF0" rx="1" ry="1"><title>2024-12-28</title></rect><rect width="4" height="4" x="285.4" y="52.1" fill="#EBEDF0" rx="1" ry="1"><title>2024-12-29</title></rect><rect width="4" height="4" x="290.8" y="19.7" fill="#EBEDF0" rx="1" ry="1"><title>2024-12-30</title></rect><rect width="4" height="4" x="290.8" y="25.1" fill="#EBEDF0" rx="1" ry="1"><title>2024-12-31</title></rect></svg>